<?xml version="1.0" encoding="utf-8"?>
<!-- Generator: Adobe Illustrator 16.0.0, SVG Export Plug-In . SVG Version: 6.00 Build 0)  -->
<!DOCTYPE svg PUBLIC "-//W3C//DTD SVG 1.1//EN" "http://www.w3.org/Graphics/SVG/1.1/DTD/svg11.dtd">
<svg version="1.1" id="Layer_1" xmlns="http://www.w3.org/2000/svg" xmlns:xlink="http://www.w3.org/1999/xlink" x="0px" y="0px"
	 width="216.499px" height="161px" viewBox="0 0 216.499 161" enable-background="new 0 0 216.499 161" xml:space="preserve">
<g>
	<path fill="#FFFFFF" d="M124.776,94.803c-0.682-1.089-1.657-1.521-2.926-1.521c-1.325,0-2.305,0.303-2.939,1.24
		c-0.635,0.937-1.056,2.479-1.265,4.479h8.324C125.855,98,125.458,95.893,124.776,94.803z"/>
	<path fill="#FFFFFF" d="M216.3,23.089l-0.135-0.071l-0.175-0.143l-0.088-0.214l-0.201-0.071l-0.202-0.143V22h0.174l-0.143-0.205
		l-0.072-0.067l-0.071-0.034l-0.499-0.48l-0.285-0.205l-0.071-0.067l-0.071-0.14l-0.215-0.355l-0.071-0.143l-0.071-0.714
		l0.071-0.713l-0.071-0.071l-0.373-0.356l-0.23-0.143V18h0.247h-0.071h-0.143l-0.5-0.5l-0.429-0.5h-0.071l-0.285,0.083l-0.714-0.066
		l-0.071,0.11l-0.071-0.063L211.177,17h-0.357h-0.143h-0.356h-0.071l-0.144-0.5l-0.284-0.5h-0.072l-0.25-0.263V16h-0.106h-0.072
		h-0.499h-0.071h-0.251v-0.191L208.607,16h-0.108l0,0h-0.035h-0.071h0.106l0,0h-0.32h-0.071l-0.519-0.238l-0.09-0.167v-0.071V15.38
		v-0.143v-0.143l0.035-0.214l-0.035-0.214v-0.071l-0.658-0.714l-0.224-0.071l-0.325-0.214l-0.377-0.214l-0.438-0.428l-0.075-0.071
		l-0.073-0.143l-0.074-0.214l-0.377-0.285l-0.378-0.643v-0.143l-0.122-0.5l-0.026-0.571l-0.44-0.334L203.826,10h-0.643h-1.143
		h-1.712h-0.5h-0.499h-1.5h-1.712h-0.071h-0.785h-0.071h-0.785h-1.498l-0.43,0.12l-0.928-0.082l-1.283-0.02L189.339,10h-0.143
		h-0.643l-2.57,0.156l-2.926-0.113L178.062,10h-0.499h-1.071h-0.213l-0.5,0.5l-3.354,0.5h-0.071h-0.428h-2.141h-0.215h-0.357h-0.143
		h-0.714h-0.784h-0.643h-0.143h-0.571h-0.285h-0.214h-0.429h-0.571h-1.213h-0.643h-0.999h-0.071h-0.143h-0.285h-0.429h-0.143h-0.071
		h-0.285h-0.429h-0.785h-0.071h-0.5h-0.499h-2.854h-0.856h-0.071h-0.713h-1.214H151.3h-0.928h-0.215l-0.57,0.869l-0.429,0.4
		l-0.929,0.449l-0.784,0.581l-0.856,0.434l-0.428,0.098L145.447,14h-0.643l-0.785-0.237l-0.856-0.227l-1.428,0.208l-0.285,0.068
		l-0.071,0.07l-0.784,0.165L140.38,14h-0.285l-1.428,0.262l-0.5,0.131l-0.998,0.458l-0.928-0.057l-0.286-0.206l-0.928-0.425
		l-0.785,0.216l-0.571,0.572l-0.07,0.072l-1.143,1.713l-1.498,0.286l-1.143,0.143l-0.785,0.132L127.319,18h-0.214l-0.785,0.082
		l-1.499,0.041l-0.855,0.377l-0.072,0.046l-1.783,0.987l-1.855,0.421l-0.785,0.425l-1,1.354l-1.855,0.142l-0.214,0.071l-0.999,0.356
		l-1.998,0.429l-1.999,0.143l-0.499-0.143l-0.143-0.072l-0.429-0.357l-0.785-0.856l-0.214-0.214l-0.785-0.286l-1.142,0.071
		l-0.499,0.286l-0.429,0.286l-0.499,0.5l-0.929,0.356l-1.642,0.714l-1.284,0.429l-0.499,0.143l-0.357,0.357l-0.713,0.777L100.128,25
		h-0.07l-0.714-1H99.13l-0.714,0.365l-0.144,0.147l-0.428-0.105l-0.143-0.053l-0.714,0.082l-0.784-0.067l-0.571,0.217l-0.929,0.93
		l0.072,0.143l-0.072,0.072l-0.07,0.071l-0.068,0.214l-0.066-0.143v0.071L94.062,26h-0.571H93.42h-0.356l-0.564-0.27v-0.143
		l0.176-0.357l-0.021-0.143l-0.046-0.571l-0.129-0.286l-0.208-0.571l-0.924-0.286l-0.999-0.285l-0.142-0.143l-0.498-0.357
		l-0.643-0.437L88.71,22h-0.357H88.14l-0.715,1h-0.57l-0.5-0.241l-0.57-0.191l-0.5-0.453l-0.143-0.155l-0.143-0.078l-0.143-0.146
		l-0.285-0.073l-0.286,0.168L83.999,22h-0.07l-0.715-0.107L81.431,22h-0.215h-0.785l-0.143,0.394L79.433,23h-0.715l-1.284-0.455
		l-0.714-0.299l-0.713,0.172l-0.5,0.192l-0.214,0.124L75.079,23h-0.072l-0.508,0.446v0.357l-0.139,0.143l-0.176,0.143l-0.374,0.143
		l-0.365,0.214l-0.433-0.072l-0.073,0.072l-0.215,0.428l-0.429,0.286l-0.072-0.151L71.653,25h-0.5l-0.57,0.437l-1.5,1.21L68.798,27
		h-0.356H68.37h-0.285l-1.143,0.008l-0.5,0.396l-1.213,0.512L64.873,28H64.73h-0.714l-0.999-0.207l-0.499-0.781l-0.5-0.077
		L61.805,27h-0.071h-0.215h-0.143h-0.143l-0.214,0.079l-0.214,0.039l-0.571,0.048L59.878,27h-0.072l-0.356-0.143L59.378,27h-0.071
		l-0.071-0.278l-0.285-0.361L58.878,26h-0.071l-0.285,0.115l-0.429,0.014L57.522,26H57.45l-0.855-0.349l-0.143-0.103l-0.429-0.274
		L55.952,25h-0.071l-0.929,0.115l-0.784-0.263l-0.429-0.167l-0.57-0.485L52.741,24h-0.072l-0.335-0.062l-0.835-0.42v-0.072
		l-0.178-0.856l0.178-0.5v-0.214l0.607-1.07l0.393-0.214v-0.928L51.884,19h-0.385v-0.194v-1.07v-0.571l0.107-0.714l-0.107-0.214
		v-0.286v-0.214v-0.143v-0.428v-0.071l-0.165-0.143l-0.116-0.143l-0.395-0.5l-0.324-0.143v-0.071v-0.143v-0.071l0.144-0.714
		l-0.144-0.785v-0.286l-0.307-0.571l-0.133-0.143l-0.561-1.285v-0.071l-0.342-0.571l0.007-0.571l-0.03-0.5l-0.053-0.072
		l-0.418-0.856L48.025,7.1l-0.212-0.071l-0.069-0.071l-0.571-0.285L46.96,6.621L46.175,6h-0.071l-0.071-0.465L45.747,5h-0.072
		L45.39,4.944l-0.214,0.007l-0.214-0.246l-1.356-0.673L43.32,4h-0.071l-1.214-0.377l-1.213,0.454l-0.499,0.155l-0.571,0.384
		L39.038,5h-0.571h-0.784h-0.785h-0.215l-1.412-1.484l0.229-1.698V1.604L35.271,1.39l-0.4-0.571l-0.449-0.428l-0.083-0.143
		L34.19,0.177l-0.146-0.072l-0.572-0.071l-0.357,0.143l-0.286-0.124L32.544,0h-0.045v0.819l-1.12,0.714l-0.345-0.214l-0.102-0.124
		L30.759,1h-0.213l-0.215,0.124L30.26,1.221L30.188,1.52l-0.143,0.363l-0.143,0.166L29.403,2h-0.285l-0.143-0.02l-0.072,0.097
		L28.69,1.896L28.048,2h-0.143l-0.571,0.159L26.905,2.06l-0.214-0.014l-0.285,0.172l-0.429,0.157l-0.143,0.241L25.121,3H25.05
		h-0.356h-0.286l-0.428-0.127l-0.071-0.008L23.979,3h0.071h0.214h0.215h0.02v0.46l-0.045,0.342L24.193,4h0.306V3.817l-1.045-0.286
		l-0.451-0.143L22.858,2.96l-0.359-0.356V2.532L21.839,2h-0.072l-0.285-0.127l-0.5-0.063l-0.143-0.066l-0.07-0.284l0.07-0.213
		l-0.214-0.302L20.482,1h-0.214l-0.357,0.159l0.357,0.151l0.143,0.254l0.214,0.412l0.437,0.564l0.438,0.563v0.071l-0.152,0.143
		l0.104,0.714l0.016,0.143l0.043,0.143l0.058,0.214l0.064,0.428l-0.064,0.356l-0.067,0.072v0.286l0.43,0.286l0.57,0.999v0.928V8.1
		v0.356v0.143v0.286v0.143v0.214v0.071l-1,0.214v0.071l0.035,0.429l-0.035,0.356v0.072L21.696,11h-0.072h-0.356h-0.071h-0.072
		l-0.098-0.058l-0.527,0.655v0.214l0.241,0.357l-0.05,0.714l-0.191,0.143v0.285v0.429v0.285v0.429v0.428v0.072v0.713l0.035,1.999
		l-0.035,0.5v0.286l0.027,0.071l0.156,0.143l0.043,0.143l0.422,0.429l0.352,0.286v0.285v0.071v0.214v0.285v0.072v0.071v1.713
		l-0.188,0.143l-0.13,0.428l-0.241,1.285l-0.087,0.428l-0.078,0.5l-0.146,0.5l-0.028,0.214l-0.102,0.071v0.286l0.1,0.143
		l-0.059,0.999l-0.1,0.35L20.269,28h-0.143l0.08,0.364l0.293,0.864v0.143l0.035,0.642l-0.035,0.071v0.5v0.214v0.5l-0.188,0.143
		l-0.128,0.999l-0.343,0.643l-0.342,0.429v0.071v0.214V34h0.127h-0.215h-0.07l-0.842,0.082v0.143L19.483,34h0.214l0.144,0.148
		l0.07,0.323l-0.1,0.52l-0.312,1.019v0.357l0.035,0.571l-0.035,0.714v0.356l-0.008,0.714l0.21,0.571l-0.038,0.214l-0.125,1.356
		l-0.063,0.5l-0.067,0.072l-0.596,1.57l-0.312,0.214v0.071l-0.186,0.285l0.093,0.286l0.093,0.357v0.072v0.142l-0.187,0.428
		l0.13,0.143l0.057-0.071v0.071v0.071l-0.044,0.286l-0.015,0.785l0.059,0.428v0.071v0.571v0.143v0.214l-0.429,0.071l-0.571,0.928
		v0.286v0.214v0.285v0.071l-0.079,0.928l-0.36,1.57l-0.244,0.357l-0.316,0.356V53h0.272l-0.272-0.217v0.071l-0.006,0.071
		l-0.04,0.214l-0.054,0.428l0.049,0.286l0.051,0.286v0.356v0.143v0.071v0.143v0.071v0.214v0.143v0.071l-0.006,0.143l0.146,0.928
		l-0.14,1.143v0.143l-0.114,0.285l-0.122,0.429l0.236,0.428V59l0,0v-0.007v0.356v0.571v0.143v0.286V61H16.2l-0.637,0.21
		l-0.064-0.076v0.071l1-0.143v0.143v0.571v0.143l-0.292,0.642l-0.324,1.499l-0.128,0.286l-0.17,0.856l-0.113,0.5l0.027,0.357v0.571
		l-0.041,0.785l0.085,0.357l0.149-0.072l0.076,0.072l0.072,0.143l-0.069,0.143l-0.142,0.072l-0.143,0.071l0.112,0.143l-0.101,1.642
		v0.071l-0.47,1.427l-0.265,0.214l-0.266,0.357v0.214v0.214l0.035,0.143l-0.035,0.429v0.071v0.357v0.071v0.071v0.071v0.214v1.142
		v1.071v0.286l-0.22,0.999l-0.288,1.071l-0.247,0.214l-0.245,0.357v0.071v0.143v0.57v0.072v0.357v0.071l-0.005,0.929l-0.073,1.07
		l0.038,0.07l0.04,0.572v0.071v0.071l-0.219,1.355l-0.182,0.785l-0.336,1.785l-0.264,1.142v0.143v0.429v0.07l-0.076,0.357
		l-0.074,0.429l-0.216,1.214l-0.07,0.213l-0.43,2l-0.356,1.569l-0.353,0.571l-0.425,0.571v0.143v0.144l0.139,0.356l-0.109,0.856
		l-0.161,0.855l-0.402,1.785l-0.058,0.214l-0.208,0.714l-0.424,1.285l-0.713,1.713l-0.285,0.715l-0.855,1.713l-0.57,1.07
		l-0.214,0.285l-0.072,0.128L6.352,108H6.28l-0.5,0.086l-0.07,0.044l-0.144-0.101L5.424,108H5.353l0.146,0.672v0.072l-0.572,0.285
		l-0.428,0.143v0.071l0.283,0.072l0.25,0.142l0.195,0.357l0.17,0.715l-0.344,1.427l-0.278,0.285l-0.276,0.5v0.214l-0.035,0.643
		l0.035,0.07v0.072l-0.465,1.643l-0.09,0.428l-0.046,0.143l-0.163,0.071l-0.236,0.144v0.07v0.143v0.429v0.071v0.214v0.144
		l-0.037,0.642l-0.767,2.642l-0.196,0.285v0.072l-0.321,1.07l-0.019,0.214l-0.044,0.143l-0.06,0.071l-0.493,1.143l-1.066,1.928
		l-0.213,0.285l-0.142,0.285L0,126.303l0.143,0.643l0.214,0.357l0.143,0.355v0.572v1.285v0.07v0.5v0.143V130h0.429h0.071l0.5,0.158
		V130H1.427h0.072l0.356,0.258l0.071,0.162l0.322,0.941l0.25,0.652v0.143v0.07l-0.107,0.287l0.089,0.07l0.223,0.143l0.29,0.215
		l0.359,0.213l0.144,0.143l0.214,1.143l0.072,0.357l-0.071,0.713l-0.069,0.5l-0.143,0.357v0.357l-0.072,0.928l-0.251,0.998
		l-0.479,0.785l-0.197,0.5v0.643v0.785v0.145v0.57v0.285v0.57v0.072v0.643v0.07v0.928l-0.036,0.643l-0.054,0.072l0.294,0.57
		l-0.03,0.357l-0.174,1.07v0.072l-0.035,0.643l0.035,0.213v0.143l0.641,0.643l0.216,0.285l0.144,0.287v0.213L3.641,150l-0.142,0.5
		v0.143v0.072l0.465,0.07l0.535,0.285v0.715L3.925,152H3.499v0.141l0.32,0.287l0.376,0.143l0.304,0.215v0.213v0.428v0.145
		l0.142,0.785l0.715,0.855l0.144,0.072v0.07l0.176,0.643l0.053,0.072l0.098-0.033L5.853,156h0.143h0.071h0.285l0.071,0.248
		l0.571,0.625l0.143,0.239l0.643,0.655l0.071,0.292l2.355,0.006L10.919,158h0.072h0.285h0.07h1.856h0.499h0.928l3.711,1h0.357h0.215
		h0.642l1.713-0.109l1.998,0.197L23.979,159h0.214h1.999h0.356h0.214h0.143h0.215h0.428h0.071l1.784-0.036L30.902,159h0.856h0.071
		h3.282h1.07h1h0.285l1.713,0.068l0.5,0.035l0.57-0.053L42.535,159h0.571h1.355h0.5h0.143h1.927h2.427h2.212h0.499l3.213-0.07
		L57.38,159h0.855h0.215h0.285h0.285l2.213,1h0.785h1.998h0.785h0.143l1.498-0.109l2.784,0.052l4.282,0.028L74.008,160h0.144h3.211
		h0.071h0.429h0.428h2.07h0.07h0.5h1.642h1.999h0.213h0.143h0.215h1.428h0.428l0.57,0.07L87.71,160h0.5h0.215h1.641h0.434l0,0h2.992
		l0.928,0.499L96.061,161h4.282h1.713h0.214h3.283h1.284h0.714h2.927h0.214h0.071h0.143h4.854h1.07h2.641h0.285h0.643l4.354-0.29
		l0.07-0.036l0.357-0.338l3.068-0.336h0.072h0.642h1.642h1.784h7.851h2.355h0.998h1.999l0.571,0.104l0.642,0.16l5.71-0.169
		l5.709-0.095h0.571h2.212l2.641-0.074l2.783-0.108l2.355-0.056l1.927-0.062l4.14-0.138l2.069-0.21l6.565-0.353h0.357l0.285,0.069
		l5.71-0.069h0.714h0.143h0.071h0.214h0.072h0.642l1.713-0.073l0.642,0.036l1.713,0.037h1.143l5.138-1h0.285h0.286h0.856h2.355
		h0.357h0.355h0.215h0.214l0.356,0.105l0.053-4.268l0.124-0.482v-1.143v-0.072l-0.572-5.424l-0.428-0.5v-1.213l0.091-0.785
		l-0.116-6.496l0.025-2.641v-0.143l-0.373-6.639l-0.4-8.137l-0.008-2.213l-0.219-6.281v-0.999l-0.159-0.429l-0.114-2.855
		l-0.165-2.641l-0.244-1.427l-0.317-3.213V99.75v-0.143v-0.571v-0.071v-0.143v-0.07v-0.357V98.18v-0.143v-0.143v-0.285v-1.214
		v-0.429v-0.143v-0.143v-0.357v-0.499v-0.286v-0.643v-0.071v-0.999v-0.643v-0.999v-0.071v-0.072v-0.142v-0.5v-0.144v-0.071v-0.07
		l0.092-0.286l-0.045-0.428l-0.047-0.143v-0.144l0.234-0.057L204.968,89h0.071h0.071h0.071l0.144,0.071L205.396,89h0.07l0.032-0.172
		v-0.07v-0.285v-0.144V87.83v-0.072v-0.214v-0.142V87.33l0.27-0.357l-0.135-0.07l-0.135-0.144v-0.214v-0.214v-0.429l0.162-0.523
		L205.824,85h-0.325v0.402v-0.07V85.26v-0.07L205.753,85h0.071l0.214-0.12l0.338-0.488l0.123-0.06v-0.07v-0.357v-0.143v-0.357
		v-0.356v-0.071l-0.018-0.072l-0.042-0.143l-0.13-0.285l-0.207-0.072l-0.139-0.166L205.538,82h-0.039v-0.095v-0.214v-0.215v-0.143
		v-0.499v-0.071v-0.072l-0.016-0.071l0.027-0.311l0.099-0.31h0.286h0.286h0.07l0.071,0.096l0.071,0.012l0.017-0.03l0.088-0.244
		v-0.071v-0.571v-0.071l0.322-0.143l0.678-0.856v-0.071v-0.143v-0.071v-0.071l-0.088-0.357l-0.152-0.214l-0.075-0.071l-0.645-0.24
		L206.252,77h-0.07h-0.072l-0.071-0.117l-0.071,0.166l-0.5-0.048h-0.07l-0.071-0.26l-0.072-0.522l0.052-0.69l0.194-0.332v-0.071
		v-0.072v-0.071l-0.23-0.026L204.968,75h-0.144h-0.356h-0.428h-0.144h-0.142h-0.144l-0.071-0.081l-0.092,0.067l0.051,0.352V75l0,0
		l0,0h-0.388h-0.07h-0.071l-0.071-0.081l-0.215-0.112l-0.214-0.092l0.156-0.045l-0.127-0.26v-0.071l-1-0.357v-0.072l0.057,0.044
		L201.685,74h-0.07h-0.073h-0.142h-0.071h-0.072h-0.07l-0.687,0.053v0.072V74h0.33l-0.072,0.035L200.614,74h-0.357H199.9
		l-0.642-0.188l-0.144,0.05l-0.486-0.511l-0.13-0.225v-0.071v-0.072L198.545,73h-0.046v-0.374v-0.071v-0.071l1-0.571v-0.071v-0.143
		v-0.071V71.27v-0.072l-0.513-0.285l-0.187-0.071l-0.27-0.072l-0.314-0.286l-0.358-0.213l-0.358-0.643v-0.214l0.5-0.071l0.5-0.286
		v-0.071l0.059-0.5l0.042-0.214l-0.101-0.785v-0.215l-0.121-0.214l0.025-0.356l0.096-0.143v-0.072v-0.071L198.045,66h0.454v0.202
		l-0.12-0.072l0.047-0.071l0.061,0.071l0.013-0.071v-0.214V65.56v-0.143v-0.143v-0.072V65.06l0.379-0.214l0.19-0.143l0.416-0.071
		l0.244-0.071l0.229-0.286l0.235-0.143l0.307-0.357v-0.428v-0.143v-0.143v-0.143l-0.086-0.071l-0.042-0.072l0.028-0.071l0.1-0.285
		v-0.071v-0.357v-0.643v-0.143l0.164-0.214l0.119-0.214l0.165-0.072l0.297-0.5l0.2-0.428l0.055-0.214v-0.286l-0.035-0.143l0.035-0.5
		v-0.071v-0.072l0.128-0.213l0.171-0.357l0.422-0.071l0.279-0.143v-0.571l-0.266-0.214l0.261-0.571l0.023-0.071l0.119-0.033
		L203.255,56h0.071h0.143h0.071h0.143l0.144-0.181l0.07-0.126l0.072-0.098l0.214-0.297L204.325,55h0.071l0.071-0.002l0.5,0.036
		L205.253,55h0.072l0.174-0.433v-0.072v-0.071v-0.143V54.21v-0.071l-0.016-0.214l0.027-0.143l0.423-0.214l0.565-0.785V52.64
		l-0.159-0.071l0.027-0.286l0.228-0.428l0.471-0.5l0.2-0.356l0.063-0.286l0.069-0.213l0.069-0.429l0.07-0.356l0.07-0.357
		l-0.019-0.143l-0.091-0.143V49l0.02-0.214l-0.081-0.428l0.062-0.214v-0.071v-0.643v-0.071v-0.071v-0.143v-0.571v-0.071v-0.5v-0.143
		v-0.143l0.02-0.285l0.223-0.214l0.112-0.072l0.341-0.5l0.116-0.356l0.188-0.572v-0.071v-0.071v-0.356v-0.214v-0.072l0.375-0.356
		l0.777-0.357l0.848-1v-0.071v-0.071v-0.714v-0.357l0.16-1.142l-0.009-0.214l-0.151-0.357v-0.071l0.16-0.714l0.151-0.571
		l0.075-0.357l0.146-0.143l0.233-0.143l0.233-0.143V36.08v-0.214v-0.071v-0.214v-0.286l-0.197-0.643l0.045-0.286l0.414-1.07
		l0.279-0.643l0.354-0.785l0.212-0.357l0.142-0.143l0.356-0.428l0.233-0.571l0.162-0.571v-0.071l0.052-0.214l0.099-0.114L213.889,29
		h0.071l0.214-0.029l0.163-0.336l0.162-0.264V28.3l-0.162-0.643l0.025-0.428l0.013-0.143l0.186-0.429l0.271-0.785l0.207-0.429
		l0.282-0.356l0.068-0.143l0.214-0.214l0.342-0.072l0.555-0.856v-0.072V23.66v-0.429V23.16L216.3,23.089z M21.499,88.167
		c2,0,2.924-0.307,4.146-0.924c1.221-0.614,2.363-1.468,3.243-2.557c0.881-1.089,1.609-2.567,2.091-3.968
		C31.463,79.317,31.75,78,31.75,76h10.749v11h8v11h-8v8.26c0,1.25-0.002,2.273,0.348,3.067c0.352,0.797,0.988,1.193,2.086,1.193
		c0.606,0,1.05-0.116,1.419-0.354c0.369-0.236,0.642-0.549,0.859-0.938c0.217-0.388,0.251-0.833,0.308-1.335
		c0.057-0.501-0.02-1.047-0.02-1.634V102h3v4.6c0,1.84,0.031,3.551-0.356,5.143c-0.388,1.59-0.937,2.965-1.875,4.118
		c-0.937,1.155-2.154,2.075-3.763,2.755c-1.611,0.683-3.608,1.024-6.051,1.024c-2.708,0-4.854-0.333-6.463-0.994
		c-1.609-0.665-2.823-1.573-3.657-2.728c-0.833-1.155-1.287-2.527-1.543-4.119c-0.256-1.59-0.292-3.322-0.292-5.199V98h-5V88.167z
		 M56.335,131.057c-0.266,0.871-0.691,1.656-1.277,2.355c-0.588,0.703-1.346,1.268-2.272,1.691
		c-0.928,0.426-2.075,0.641-3.437,0.641c-1.895,0-3.385-0.482-4.475-1.449c-1.09-0.965-1.635-2.131-1.635-3.496
		c0-0.66,0.077-1.223,0.229-1.688c0.152-0.463,0.309-0.842,0.469-1.135c0.161-0.295,0.27-0.508,0.326-0.639
		c0.057-0.133-0.01-0.201-0.199-0.201c-0.396,0-0.615,0.455-1.08,1.365c-0.464,0.908-0.484,2.338-0.484,4.289v6.504
		c0,1.002-0.036,1.678,0.313,2.104c0.352,0.428,0.815,0.602,1.82,0.602h1.866v11h-24v-11h1.596c0.777,0,1.377-0.213,1.785-0.715
		c0.407-0.5,0.619-1.062,0.619-1.764v-5.396c0-0.891-0.269-1.418-0.79-1.729c-0.521-0.313-1.12-0.396-1.784-0.396h-1.426v-11h16.793
		l-0.482,8h0.482c0.663-3,1.766-5.191,3.309-6.726c1.545-1.533,3.547-2.271,6.009-2.271c1.458,0,2.713,0.248,3.764,0.711
		c1.051,0.466,1.897,1.094,2.542,1.87c0.644,0.776,1.107,1.677,1.393,2.688c0.283,1.012,0.426,2.062,0.426,3.141
		C56.733,129.303,56.601,130.186,56.335,131.057z M53.499,119v-10h2.026c0.776,0,1.367-0.273,1.774-0.775
		c0.408-0.5,0.611-1.113,0.611-1.814l-0.057-15.004c0-1.098-0.346-2.006-1.037-2.527C56.126,88.358,55.326,88,54.417,88h-0.918V78
		h20v10.191c0,0.359-0.11,0.984-0.337,1.875c-0.228,0.89-0.653,1.779-1.276,2.668l0.568,0.285c1.022-1.855,2.396-3.337,4.119-4.445
		c1.723-1.107,4.053-1.66,6.988-1.66c2.5,0,4.53,0.368,6.092,1.105c1.562,0.739,2.784,1.672,3.665,2.8
		c0.88,1.127,1.429,2.349,1.751,3.663c0.321,1.318,0.43,2.553,0.43,3.707v7.981c0,1.005,0.229,1.74,0.578,2.168
		c0.351,0.425,1.08,0.661,2.084,0.661h1.338v10h-19v-17.657c0-0.738-0.32-1.329-0.5-1.776c-0.181-0.443-0.521-0.784-0.797-1.02
		c-0.273-0.237-0.64-0.396-0.98-0.471c-0.341-0.076-0.701-0.113-1.023-0.113c-1.23,0-2.166,0.357-2.772,1.079
		c-0.606,0.721-0.927,1.741-0.927,3.067v4.062c0,1.005,0.179,1.74,0.529,2.168c0.35,0.425,1.029,0.661,2.033,0.661h2.438v10H53.499z
		 M104.499,153h-17v-8H86.7c-0.436,3-1.619,5.009-3.551,6.505c-1.932,1.498-4.744,2.202-8.437,2.202
		c-2.595,0-4.706-0.39-6.334-1.126c-1.63-0.74-2.888-1.682-3.778-2.811c-0.891-1.123-1.389-2.352-1.718-3.668
		c-0.332-1.316-0.384-2.558-0.384-3.712v-7.756c0-1.002-0.289-1.644-0.64-2.068c-0.351-0.428-1.141-0.566-2.144-0.566h-1.217v-11h19
		v18.236c0,0.738,0.27,1.334,0.439,1.775c0.17,0.445,0.484,0.785,0.759,1.023s0.633,0.395,0.984,0.469
		c0.35,0.076,0.698,0.113,1.001,0.113c1.252,0,2.25-0.359,2.846-1.078c0.598-0.721,0.971-1.742,0.971-3.068v-3.836
		c0-1.002-0.239-1.644-0.589-2.068C83.56,132.139,82.818,132,81.815,132h-1.316v-11h19v18.805c0,0.91,0.494,1.477,1.014,1.779
		c0.521,0.304,1.346,0.416,2.009,0.416h1.978V153z M102.934,110.137c-1.005-2.111-1.505-4.625-1.505-7.539
		c0-2.785,0.473-5.229,1.419-7.328c0.947-2.103,2.276-3.861,3.991-5.27c1.714-1.412,3.739-2.477,6.078-3.196
		c2.339-0.721,4.91-1.079,7.713-1.079c3.446,0,6.408,0.454,8.891,1.363c2.48,0.909,4.506,2.177,6.078,3.807
		c1.572,1.627,2.727,3.38,3.466,5.671c0.738,2.292,1.089,5.435,1.052,7.435h-22.47c0.076,3,0.611,4.975,1.605,6.043
		c0.994,1.071,2.419,1.711,4.275,1.711c0.624,0,1.235-0.037,1.831-0.219c0.598-0.18,1.151-0.447,1.662-0.855
		c0.512-0.406,0.952-0.707,1.32-1.379c0.369-0.67,0.611-1.301,0.725-2.301h10.34c-0.379,2-1.075,4.261-2.088,5.909
		c-1.014,1.646-2.315,2.864-3.904,3.874c-1.592,1.016-3.443,1.687-5.555,2.131c-2.111,0.443-4.464,0.641-7.059,0.641
		c-2.67,0-5.18-0.355-7.527-1.039c-2.348-0.681-4.408-1.725-6.178-3.115C105.323,114.008,103.938,112.248,102.934,110.137z
		 M153.499,153h-20v-18.535c0-0.738,0.016-1.33-0.164-1.773c-0.18-0.445-0.354-0.787-0.629-1.023
		c-0.274-0.236-0.556-0.393-0.896-0.469c-0.341-0.078-0.66-0.113-0.98-0.113c-1.232,0-1.982,0.359-2.589,1.078
		c-0.606,0.721-0.741,1.742-0.741,3.066v4.064c0,1.002,0.014,1.678,0.365,2.104c0.35,0.428,0.865,0.602,1.869,0.602h1.766v11h-24
		v-11h1.697c0.777,0,1.327-0.213,1.734-0.715c0.407-0.5,0.568-1.062,0.568-1.764v-5.396c0-0.891-0.219-1.418-0.739-1.729
		c-0.521-0.313-1.071-0.396-1.733-0.396h-1.527v-11h16.895l-0.597,8h0.482c0.417-3,1.694-5.098,3.835-6.669s5.047-2.327,8.721-2.327
		c2.595,0,4.705,0.385,6.334,1.124s2.893,1.681,3.792,2.806c0.899,1.127,1.621,2.352,1.944,3.67
		c0.321,1.314,0.594,2.553,0.594,3.709v7.982c0,1.002,0.064,1.678,0.414,2.104c0.351,0.428,0.916,0.602,1.92,0.602h1.666V153z
		 M188.333,147.816c-0.758,1.268-1.794,2.311-3.109,3.123c-1.317,0.816-2.865,1.426-4.645,1.832
		c-1.779,0.408-3.703,0.611-5.766,0.611c-2.008,0-3.907-0.195-5.695-0.582c-1.79-0.387-3.499-0.938-5.127-1.87L163.706,153h-7.207
		v-12h7.492c0.738,2,1.67,2.887,2.797,3.723c1.127,0.832,2.373,1.349,3.735,1.349c1.042,0,1.785-0.148,2.23-0.535
		c0.444-0.387,0.667-0.793,0.667-1.268c0-0.777-0.436-1.364-1.307-1.789c-0.871-0.428-1.945-0.8-3.224-1.132
		c-1.278-0.33-2.685-0.695-4.218-1.105c-1.535-0.406-2.94-0.995-4.219-1.772c-1.278-0.775-2.354-1.821-3.225-3.138
		s-1.306-3.043-1.306-5.186c0-1.531,0.344-2.934,1.036-4.203c0.691-1.268,1.68-2.338,2.969-3.209
		c1.287-0.872,2.802-1.538,4.545-2.004c1.742-0.463,3.654-0.695,5.738-0.695c2.328,0,4.425,0.262,6.291,0.78
		c1.864,0.523,3.261,1.335,4.189,1.96l0.284-1.775h7.522v11h-7.807c-0.55-2-1.401-2.603-2.557-3.397
		c-1.154-0.796-2.357-1.272-3.607-1.272c-0.852,0-1.53,0.118-2.031,0.429c-0.5,0.313-0.752,0.763-0.752,1.387
		c0,0.777,0.435,1.349,1.307,1.737c0.871,0.389,1.964,0.729,3.281,1.031c1.315,0.303,2.74,0.665,4.273,1.091
		c1.535,0.426,2.959,1.036,4.275,1.831c1.317,0.796,2.41,1.866,3.281,3.21c0.87,1.344,1.307,3.113,1.307,5.31
		C189.47,145.061,189.091,146.547,188.333,147.816z"/>
</g>
</svg>
