<?xml version="1.0" encoding="utf-8"?>
<!-- Generator: Adobe Illustrator 16.0.0, SVG Export Plug-In . SVG Version: 6.00 Build 0)  -->
<!DOCTYPE svg PUBLIC "-//W3C//DTD SVG 1.1//EN" "http://www.w3.org/Graphics/SVG/1.1/DTD/svg11.dtd">
<svg version="1.1" id="Layer_1" xmlns="http://www.w3.org/2000/svg" xmlns:xlink="http://www.w3.org/1999/xlink" x="0px" y="0px"
	 width="216.243px" height="160.603px" viewBox="0 0 216.243 160.603" enable-background="new 0 0 216.243 160.603"
	 xml:space="preserve">
<g>
	<polygon fill="#404041" points="2.212,122.129 2.284,121.915 2.712,120.845 2.712,120.772 2.854,120.487 3.568,117.846 
		3.711,117.204 3.711,117.061 3.711,116.847 3.711,116.775 3.711,116.347 3.711,116.204 3.711,116.134 3.854,115.99 3.925,115.919 
		3.997,115.776 4.14,115.349 4.71,113.706 4.71,113.634 4.782,113.563 4.925,112.921 4.925,112.707 4.995,112.207 5.067,111.922 
		5.424,110.495 5.281,109.78 5.139,109.423 4.995,109.281 4.925,109.209 4.925,109.138 4.995,108.995 5.21,108.71 5.21,108.638 
		5.353,108.425 5.424,108.425 5.566,108.21 5.71,108.067 5.78,107.995 6.28,107.854 6.352,107.854 6.565,107.64 6.638,107.567 
		6.852,107.282 7.422,106.212 8.278,104.499 8.564,103.784 9.278,102.071 9.706,100.786 9.92,100.072 9.991,99.858 10.42,98.073 
		10.634,97.218 10.848,96.361 10.919,96.005 10.919,95.861 10.919,95.719 11.134,95.147 11.276,94.576 11.633,93.007 12.062,91.007 
		12.132,90.794 12.347,89.58 12.418,89.151 12.489,88.794 12.489,88.724 12.561,88.295 12.561,88.152 12.774,87.011 13.061,85.226 
		13.203,84.44 13.346,83.085 13.346,83.014 13.346,82.942 13.417,82.37 13.489,82.3 13.632,81.229 13.774,80.301 13.774,80.229 
		13.845,79.872 13.845,79.801 13.845,79.23 13.774,79.087 13.774,79.017 13.845,78.659 13.917,78.444 14.131,77.374 14.202,76.375 
		14.202,76.089 14.345,75.019 14.487,73.876 14.487,73.663 14.345,73.591 14.345,73.521 14.345,73.448 14.345,73.092 14.345,73.021 
		14.487,72.592 14.56,72.449 14.56,72.235 14.56,72.021 14.702,71.664 14.845,71.45 15.13,70.022 15.13,69.951 15.415,68.31 
		15.487,68.167 15.63,68.095 15.772,68.023 15.843,67.881 15.772,67.738 15.7,67.667 15.558,67.738 15.487,67.382 15.558,66.597 
		15.558,66.025 15.487,65.669 15.558,65.169 15.7,64.312 15.772,64.026 15.986,62.527 16.058,61.886 16.058,61.743 16.129,61.171 
		16.129,61.028 15.772,61.171 15.772,61.101 15.7,61.028 16.2,60.671 16.272,60.671 16.272,60.315 16.343,60.029 16.343,59.886 
		16.485,59.315 16.485,58.959 16.485,58.888 16.415,58.888 16.415,58.815 16.2,58.388 16.343,57.959 16.415,57.674 16.415,57.531 
		16.558,56.389 16.415,55.461 16.343,55.318 16.343,55.247 16.2,55.104 16.2,54.89 16.2,54.818 16.272,54.676 16.272,54.604 
		16.272,54.462 16.272,54.104 16.343,53.819 16.415,53.534 16.485,53.105 16.558,52.892 16.628,52.819 16.628,52.749 16.771,52.677 
		16.914,52.677 16.914,52.605 17.057,52.249 17.128,51.892 17.556,50.321 17.771,49.394 17.771,49.322 17.771,49.037 17.842,48.823 
		17.842,48.537 18.056,47.609 18.127,47.538 18.127,47.323 18.198,47.181 18.271,46.61 18.271,46.538 18.341,46.11 18.483,45.325 
		18.556,45.04 18.556,44.968 18.556,44.897 18.413,44.968 18.198,44.825 18.271,44.397 18.271,44.255 18.271,44.183 18.413,43.826 
		18.556,43.54 18.983,43.255 18.983,43.185 19.056,42.97 19.411,41.399 19.483,41.327 19.555,40.828 19.697,39.472 19.769,39.258 
		19.626,38.687 19.769,37.973 19.769,37.616 19.911,36.902 19.983,36.331 19.983,35.975 20.054,34.976 19.911,34.476 19.841,34.19 
		19.697,34.119 19.483,34.119 18.913,34.19 18.913,34.048 19.341,33.905 19.411,33.905 19.626,33.833 19.697,33.833 19.697,33.762 
		19.841,33.548 19.841,33.477 19.983,33.048 20.126,32.405 20.196,31.406 20.269,31.264 20.269,30.765 20.269,30.55 20.269,30.05 
		20.196,29.979 20.054,29.337 20.054,29.194 19.983,28.552 20.126,28.409 20.269,28.409 20.482,27.767 20.625,27.194 20.769,26.196 
		20.839,26.053 20.839,25.767 20.769,25.696 20.625,25.481 20.769,24.982 20.839,24.482 20.911,24.054 21.124,22.77 21.196,22.341 
		21.268,22.198 21.268,20.485 21.268,20.414 21.268,20.343 21.268,20.058 21.268,19.843 21.196,19.771 21.196,19.486 20.981,19.2 
		20.696,18.772 20.625,18.63 20.411,18.487 20.269,18.415 20.269,18.13 20.625,17.63 20.911,15.632 20.911,14.918 20.911,14.847 
		20.911,14.419 20.911,13.989 20.911,13.704 20.911,13.276 20.911,12.991 20.839,12.849 20.625,12.134 20.269,11.776 20.269,11.563 
		20.911,10.706 21.124,10.563 21.196,10.563 21.268,10.492 21.624,10.492 21.696,10.492 21.767,10.421 21.767,10.349 21.909,9.993 
		21.981,9.563 21.981,9.493 22.053,9.278 22.053,9.208 22.053,8.993 22.053,8.851 22.053,8.565 22.053,8.422 22.053,8.065 
		22.053,7.851 22.053,6.923 21.839,5.925 21.767,5.639 21.767,5.353 21.696,5.281 21.624,4.925 21.553,4.497 21.481,4.282 
		21.41,4.14 21.339,3.997 21.124,3.282 21.054,3.14 21.054,3.069 20.839,2.498 20.625,1.927 20.411,1.499 20.269,1.213 
		19.911,0.999 20.269,0.713 20.482,0.713 20.625,0.785 20.839,1.213 20.769,1.427 20.839,1.713 20.981,1.784 21.481,1.854 
		21.767,1.998 21.839,1.998 22.409,2.498 22.409,2.569 22.767,2.926 22.909,3.354 23.266,3.497 24.122,3.782 24.122,3.854 
		24.193,3.854 24.479,3.712 24.551,3.426 24.551,3.354 24.479,3.354 24.265,3.14 24.051,2.926 23.979,2.926 23.908,2.712 
		23.979,2.641 24.407,2.569 24.693,2.569 25.05,2.641 25.121,2.641 25.835,2.427 25.978,2.355 26.406,2.212 26.691,2.069 
		26.905,2.142 27.334,2.355 27.905,2.427 28.048,2.427 28.69,2.069 28.903,1.998 28.976,1.854 29.118,1.784 29.403,1.784 
		29.903,1.927 30.046,1.854 30.188,1.499 30.26,1.213 30.331,1.142 30.546,1.07 30.759,1.07 30.902,1.213 30.974,1.284 
		31.259,1.499 32.259,0.785 32.259,0.356 32.544,0.356 32.829,0.214 33.114,0.143 33.472,0 34.042,0.07 34.185,0.143 34.327,0.214 
		34.399,0.356 34.827,0.785 35.185,1.356 35.327,1.57 35.327,1.784 35.185,3.354 36.683,4.71 36.897,4.71 37.683,4.782 
		38.467,4.854 39.038,4.854 39.752,4.497 40.323,4.14 40.822,3.925 42.035,3.354 43.249,3.497 43.32,3.497 43.605,3.782 
		44.962,4.71 45.176,4.996 45.39,5.067 45.675,5.281 45.747,5.281 46.032,5.424 46.104,5.495 46.175,5.495 46.96,6.353 
		47.174,6.638 47.745,6.923 47.816,6.995 48.03,7.065 48.673,7.423 49.101,8.279 49.173,8.351 49.243,8.851 49.315,9.422 
		49.814,9.993 49.814,10.063 50.313,11.349 50.386,11.491 50.885,12.062 50.885,12.349 51.028,13.134 50.885,13.847 50.885,13.919 
		50.956,14.062 50.956,14.132 51.028,14.275 51.171,14.774 51.241,14.918 51.313,15.061 51.313,15.132 51.527,15.56 51.527,15.703 
		51.527,15.917 51.527,16.202 51.456,16.417 51.171,17.131 51.171,17.702 51.813,18.772 51.813,18.843 51.884,18.843 52.026,19.629 
		52.026,20.557 51.956,20.771 51.67,21.841 51.67,22.056 51.599,22.556 51.884,23.411 51.884,23.483 52.526,23.911 52.669,23.983 
		52.741,23.983 53.169,24.196 53.739,24.696 54.168,24.911 54.952,25.268 55.881,25.339 55.952,25.339 56.023,25.41 56.452,25.481 
		56.595,25.554 57.45,25.839 57.522,25.839 58.093,26.124 58.521,26.267 58.807,26.339 58.878,26.339 58.95,26.409 59.235,26.481 
		59.307,26.552 59.378,26.552 59.449,26.624 59.806,26.981 59.878,26.981 60.234,27.124 60.806,27.052 61.02,26.981 61.233,26.838 
		61.376,26.838 61.519,26.767 61.733,26.694 61.805,26.694 62.019,26.767 62.519,26.981 63.018,27.767 64.017,27.979 64.73,27.979 
		64.873,27.979 65.229,27.837 66.442,27.267 66.942,26.767 68.085,26.552 68.37,26.552 68.441,26.624 68.798,26.624 69.083,26.552 
		70.583,25.624 71.153,25.41 71.653,25.41 72.224,25.196 72.296,25.125 72.724,24.839 72.938,24.411 73.009,24.339 73.437,24.411 
		73.794,24.196 74.151,24.054 74.294,23.911 74.365,23.769 74.365,23.411 75.007,22.841 75.079,22.841 75.293,22.626 75.507,22.556 
		76.007,22.341 76.72,22.127 77.434,22.341 78.718,22.626 79.433,22.626 80.288,22.341 80.431,22.27 81.216,22.27 81.431,22.27 
		83.214,21.771 83.929,21.485 83.999,21.485 84.285,21.556 84.571,21.628 84.856,21.698 84.999,21.841 85.142,21.913 85.284,22.056 
		85.784,22.483 86.354,22.626 86.854,22.77 87.425,22.77 88.14,22.412 88.353,22.412 88.71,22.412 89.066,22.341 89.709,22.556 
		90.208,22.912 90.351,23.056 91.351,23.341 92.278,23.626 92.492,24.196 92.635,24.482 92.706,25.054 92.778,25.196 92.706,25.554 
		92.706,25.696 93.063,26.053 93.42,26.053 93.491,26.053 94.062,26.053 94.205,25.909 94.205,25.839 94.419,25.981 94.634,25.767 
		94.704,25.696 94.776,25.624 94.704,25.481 95.633,24.554 96.204,24.339 96.988,24.411 97.702,24.339 97.845,24.411 98.272,24.554 
		98.416,24.482 99.13,24.269 99.344,24.269 100.058,24.839 100.128,24.839 100.558,24.769 101.271,24.054 101.628,23.697 
		102.127,23.555 103.411,23.126 105.053,22.412 105.981,22.056 106.48,21.556 106.909,21.271 107.408,20.985 108.55,20.913 
		109.335,21.199 109.549,21.413 110.334,22.27 110.763,22.626 110.905,22.698 111.404,22.841 113.403,22.698 115.401,22.27 
		116.4,21.913 116.614,21.841 118.47,21.698 119.47,20.343 120.255,19.914 122.11,19.486 123.894,18.487 123.966,18.415 
		124.821,17.987 126.32,17.845 127.105,17.559 127.319,17.559 129.032,17.06 129.817,17.131 130.96,16.987 132.458,16.702 
		133.601,14.989 133.671,14.918 134.242,14.347 135.027,14.132 135.955,14.562 136.241,14.774 137.169,14.847 138.167,14.419 
		138.667,14.347 140.095,14.204 140.38,14.204 140.595,14.132 141.379,13.847 141.45,13.776 141.735,13.704 143.163,13.49 
		144.02,13.704 144.805,13.919 145.447,13.919 146.161,13.776 146.589,13.704 147.445,13.276 148.229,12.705 149.158,12.276 
		149.587,11.919 150.157,11.134 150.372,11.134 151.3,11.063 152.441,11.063 153.655,11.063 154.368,10.991 154.439,10.991 
		155.296,10.991 158.15,10.921 158.649,10.921 159.149,10.921 159.221,10.921 160.006,10.921 160.435,10.849 160.72,10.849 
		160.791,10.849 160.934,10.849 161.362,10.849 161.647,10.849 161.79,10.849 161.861,10.849 162.86,10.849 163.503,10.778 
		164.716,10.778 165.287,10.778 165.716,10.778 165.93,10.778 166.215,10.778 166.786,10.706 166.929,10.706 167.571,10.706 
		168.355,10.706 169.069,10.706 169.212,10.636 169.569,10.636 169.784,10.636 171.925,10.563 172.353,10.563 172.424,10.563 
		175.778,10.492 176.278,10.421 176.491,10.421 177.562,10.421 178.062,10.421 183.058,10.278 185.983,10.206 188.554,10.136 
		189.196,10.136 189.339,10.136 190.267,10.063 191.55,9.993 192.478,10.063 192.907,9.921 194.405,9.921 195.19,9.85 195.262,9.85 
		196.047,9.85 196.118,9.85 197.83,9.778 199.33,9.706 199.829,9.706 200.329,9.706 202.041,9.636 203.184,9.636 203.826,9.636 
		203.969,9.85 204.468,10.349 204.611,10.921 204.968,11.421 204.968,11.563 205.11,12.206 205.253,12.491 205.325,12.705 
		205.396,12.849 205.467,12.919 205.896,13.347 206.252,13.562 206.537,13.776 206.681,13.847 207.18,14.562 207.18,14.632 
		207.322,14.847 207.395,15.061 207.395,15.203 207.395,15.346 207.395,15.489 207.395,15.56 207.537,15.774 208.107,16.06 
		208.179,16.06 208.322,16.06 208.322,15.989 208.393,15.989 208.464,15.917 208.536,15.917 208.536,15.846 208.607,15.846 
		208.679,15.774 208.679,15.703 208.75,15.703 208.821,15.703 209.32,15.632 209.393,15.632 209.464,15.632 209.464,15.703 
		209.749,15.846 209.821,15.846 210.105,16.345 210.249,16.845 210.32,16.845 210.677,17.273 210.819,17.273 211.177,17.273 
		211.391,17.202 211.462,17.131 211.533,17.06 212.247,17.202 212.532,17.273 212.604,17.273 213.032,17.702 213.532,18.13 
		213.675,18.13 213.746,18.201 213.816,18.201 213.816,18.272 213.889,18.415 214.103,18.772 214.174,18.843 214.103,19.558 
		214.174,20.271 214.245,20.414 214.46,20.771 214.531,20.913 214.603,20.985 214.888,21.199 215.387,21.698 215.458,21.771 
		215.53,21.913 215.673,22.27 215.744,22.27 215.744,22.412 215.815,22.556 215.887,22.626 215.958,22.841 216.101,22.983 
		216.172,23.056 216.243,23.126 216.243,23.197 216.243,23.626 216.243,23.697 216.243,23.769 215.815,24.625 215.602,24.696 
		215.387,24.911 215.316,25.054 215.03,25.41 214.816,25.839 214.531,26.624 214.316,27.052 214.245,27.194 214.103,27.623 
		214.031,28.266 214.031,28.337 214.103,28.622 214.174,28.979 213.96,29.051 213.889,29.051 213.604,29.407 213.46,29.479 
		213.317,29.693 213.317,29.765 213.246,30.335 213.104,30.907 212.746,31.335 212.604,31.478 212.39,31.835 212.033,32.62 
		211.747,33.263 211.319,34.333 211.248,34.618 211.391,35.261 211.391,35.546 211.391,35.761 211.391,35.831 211.319,36.046 
		211.319,36.117 211.177,36.261 211.034,36.403 210.891,36.546 210.819,36.902 210.677,37.474 210.534,38.188 210.534,38.259 
		210.605,38.616 210.534,38.829 210.249,39.972 210.249,40.329 210.178,41.042 210.105,41.114 210.105,41.185 209.535,42.185 
		209.035,42.542 208.821,42.897 208.821,42.97 208.821,43.185 208.821,43.54 208.821,43.612 208.821,43.683 208.464,44.255 
		208.179,44.611 207.822,45.11 207.68,45.183 207.395,45.397 207.251,45.683 207.251,45.825 207.322,45.968 207.322,46.468 
		207.322,46.538 207.037,47.11 207.037,47.253 207.037,47.323 207.037,47.396 207.251,48.038 207.251,48.108 207.395,48.323 
		207.68,48.751 207.822,48.966 207.822,49.037 207.751,49.18 207.607,49.322 207.537,49.68 207.466,50.036 207.395,50.465 
		207.322,50.679 207.251,50.964 207.037,51.321 206.537,51.821 206.252,52.249 206.109,52.534 206.038,52.605 206.038,52.749 
		205.682,53.534 205.467,53.748 205.396,53.891 205.325,54.104 205.325,54.177 205.325,54.247 205.396,54.39 205.396,54.462 
		205.396,54.533 205.325,54.676 205.253,54.676 204.968,54.89 204.468,55.032 204.396,55.104 204.325,55.104 204.183,55.318 
		203.969,55.532 203.896,55.604 203.826,55.675 203.683,55.746 203.54,55.746 203.469,55.746 203.326,55.746 203.255,55.746 
		202.612,56.104 202.47,56.246 202.397,56.317 202.041,56.888 202.113,57.103 202.113,57.674 202.041,57.816 201.827,57.888 
		201.685,58.245 201.614,58.458 201.614,58.53 201.614,58.602 201.399,59.101 201.256,59.243 201.256,59.53 201.328,59.743 
		201.256,60.172 200.971,60.671 200.829,60.743 200.757,60.958 200.686,61.171 200.686,61.313 200.614,61.956 200.614,62.313 
		200.614,62.385 200.4,62.67 200.257,62.741 200.186,62.813 200.043,62.884 200.043,63.027 200.043,63.17 200.186,63.313 
		200.186,63.741 200.043,64.098 199.972,64.241 199.758,64.526 199.544,64.598 199.187,64.669 199.115,64.812 198.973,65.026 
		198.973,65.169 198.973,65.24 198.901,65.383 198.901,65.525 198.759,65.812 198.545,66.025 198.474,66.097 198.33,66.025 
		198.188,66.097 198.116,66.168 198.116,66.311 198.045,66.311 198.116,66.382 198.116,66.453 198.116,66.524 198.188,66.668 
		198.33,67.024 198.402,67.238 198.402,67.453 198.474,68.237 198.402,68.452 198.188,68.952 198.188,69.022 197.974,69.309 
		197.76,69.38 197.76,69.594 197.974,70.237 198.188,70.45 198.474,70.735 198.687,70.808 198.759,70.879 199.044,71.164 
		199.044,71.235 199.259,71.593 199.259,71.664 199.187,71.807 199.187,71.878 198.901,72.449 198.901,72.521 198.616,72.592 
		198.616,72.663 198.545,72.663 198.474,72.948 198.474,73.021 198.474,73.092 198.616,73.377 199.115,73.948 199.259,74.019 
		199.9,74.448 200.257,74.448 200.614,74.448 200.757,74.376 200.829,74.233 200.899,74.233 200.899,74.091 200.899,74.019 
		201.186,73.663 201.256,73.663 201.328,73.591 201.399,73.591 201.541,73.591 201.614,73.591 201.685,73.591 201.756,73.733 
		201.898,73.876 201.898,73.948 202.041,74.306 202.041,74.376 202.397,74.662 202.47,74.733 202.684,74.876 202.898,75.091 
		202.97,75.376 203.041,75.376 203.111,75.446 203.184,75.446 203.184,75.376 203.255,75.376 203.255,75.304 203.326,74.876 
		203.54,74.733 203.611,74.662 203.755,74.662 203.896,74.733 204.04,74.733 204.468,74.733 204.824,74.733 204.968,74.733 
		205.11,74.804 205.182,74.947 205.182,75.019 205.253,75.091 205.253,75.161 205.182,75.446 205.253,76.089 205.325,76.519 
		205.396,76.589 205.467,76.589 205.967,76.731 206.038,76.661 206.109,76.589 206.182,76.589 206.252,76.589 206.537,76.661 
		207.18,77.089 207.251,77.16 207.395,77.374 207.466,77.731 207.466,77.803 207.466,77.874 207.395,78.017 207.395,78.089 
		206.966,78.944 206.894,79.087 206.894,79.159 206.609,79.729 206.609,79.801 206.467,80.087 206.395,80.158 206.323,80.229 
		206.252,80.301 206.182,80.301 205.896,80.444 205.609,80.444 205.467,80.515 205.396,80.587 205.325,80.657 205.325,80.729 
		205.325,80.801 205.396,81.3 205.396,81.442 205.467,81.657 205.467,81.871 205.467,82.015 205.538,82.015 205.967,82.228 
		206.109,82.37 206.323,82.442 206.467,82.728 206.537,82.87 206.609,82.942 206.609,83.014 206.537,83.37 206.467,83.728 
		206.467,83.87 206.395,84.228 206.395,84.298 206.323,84.369 206.038,84.869 205.824,85.013 205.753,85.013 205.682,85.155 
		205.682,85.226 205.682,85.298 205.753,85.368 205.753,85.44 205.824,85.44 205.896,85.583 205.967,85.868 205.967,86.297 
		205.967,86.511 205.967,86.725 205.896,86.868 205.824,86.938 205.609,87.296 205.609,87.368 205.682,87.51 205.682,87.724 
		205.682,87.796 205.609,88.295 205.609,88.438 205.538,88.724 205.538,88.794 205.467,88.866 205.396,88.866 205.325,88.938 
		205.182,88.866 205.11,88.866 205.039,88.938 204.968,88.938 204.824,89.009 204.682,89.08 204.682,89.224 204.611,89.366 
		204.539,89.794 204.396,90.08 204.396,90.15 204.396,90.222 204.396,90.365 204.468,90.865 204.468,91.007 204.468,91.079 
		204.468,91.15 204.468,92.149 204.539,92.792 204.539,93.791 204.539,93.862 204.611,94.505 204.611,94.791 204.611,95.29 
		204.682,95.647 204.682,95.79 204.682,95.933 204.682,96.361 204.753,97.575 204.753,97.86 204.753,98.003 204.753,98.146 
		204.753,98.36 204.753,98.718 204.753,98.788 204.753,98.931 204.824,99.002 204.824,99.573 204.824,99.716 204.824,100.072 
		204.968,103.285 205.039,104.712 205.182,107.353 205.253,110.208 205.325,110.637 205.325,111.636 205.609,117.917 
		205.682,120.13 206.038,128.267 206.323,134.905 206.323,135.048 206.467,137.688 206.752,144.185 206.823,144.97 206.823,146.183 
		206.894,146.683 207.108,152.106 207.108,152.179 207.108,153.321 207.18,153.892 207.322,158.247 206.966,158.317 
		206.752,158.317 206.537,158.317 206.182,158.317 205.824,158.317 203.469,158.39 202.612,158.46 202.326,158.46 202.041,158.46 
		196.903,158.747 195.761,158.747 194.048,158.817 193.406,158.89 191.693,158.96 191.052,158.96 190.979,158.96 190.766,158.96 
		190.694,158.96 190.552,158.96 189.838,159.032 184.128,159.175 183.843,159.245 183.485,159.245 176.92,159.46 174.851,159.532 
		170.711,159.675 168.784,159.745 166.429,159.817 163.646,159.96 161.005,160.103 158.793,160.103 158.222,160.103 
		152.513,160.173 146.803,160.317 146.161,160.245 145.59,160.317 143.591,160.317 142.593,160.317 140.237,160.317 
		132.387,160.388 130.603,160.317 128.961,160.388 128.319,160.388 128.247,160.388 125.179,160.458 124.821,160.53 
		124.751,160.458 120.397,160.53 119.755,160.53 119.47,160.53 116.829,160.603 115.759,160.603 110.905,160.603 110.763,160.603 
		110.691,160.603 110.478,160.603 107.551,160.603 106.837,160.603 105.553,160.603 102.27,160.53 102.056,160.53 100.343,160.53 
		96.061,160.53 94.419,160.458 93.491,160.388 90.138,160.388 90.138,160.317 90.065,160.317 88.425,160.317 88.21,160.317 
		87.71,160.317 87.567,160.388 86.997,160.317 86.569,160.317 85.142,160.317 84.927,160.317 84.784,160.317 84.571,160.317 
		82.572,160.245 80.931,160.173 80.431,160.173 80.36,160.173 78.29,160.103 77.862,160.103 77.434,160.03 77.362,160.03 
		74.151,159.96 74.008,159.96 73.509,159.888 69.227,159.817 66.442,159.675 64.944,159.603 64.802,159.603 64.017,159.603 
		62.019,159.532 61.233,159.532 59.021,159.388 58.735,159.388 58.45,159.388 58.235,159.388 57.38,159.388 55.382,159.317 
		52.169,159.388 51.67,159.388 49.458,159.317 47.031,159.245 45.104,159.245 44.962,159.245 44.462,159.245 43.106,159.175 
		42.535,159.175 40.251,159.103 39.681,159.032 39.181,158.96 37.468,158.817 37.183,158.817 36.183,158.89 35.112,158.89 
		31.83,158.96 31.759,158.96 30.902,158.96 29.403,158.817 27.619,158.747 27.548,158.747 27.12,158.747 26.905,158.747 
		26.763,158.747 26.549,158.747 26.192,158.747 24.193,158.675 23.979,158.675 23.266,158.817 21.268,158.675 19.555,158.603 
		18.913,158.603 18.698,158.603 18.341,158.603 14.63,158.39 13.702,158.39 13.203,158.317 11.347,158.247 11.276,158.247 
		10.991,158.247 10.919,158.247 10.206,158.175 7.851,158.032 7.779,157.747 7.137,157.104 6.994,156.892 6.423,156.319 
		6.352,156.177 6.066,156.177 5.995,156.177 5.853,156.177 5.78,156.106 5.638,156.034 5.495,155.962 5.139,155.319 5.139,155.249 
		5.067,155.177 4.425,154.321 4.067,153.536 4.067,153.392 4.21,152.964 4.21,152.751 4.14,152.536 3.997,152.394 3.854,152.106 
		3.854,151.894 3.925,151.894 4.067,151.751 4.067,151.036 3.854,150.751 3.711,150.681 3.711,150.608 3.64,150.466 3.711,149.966 
		3.64,149.823 3.64,149.61 3.497,149.323 3.282,149.038 2.783,148.396 2.783,148.253 2.854,148.04 2.997,147.397 2.997,147.325 
		2.927,146.255 2.712,145.897 2.427,145.327 2.498,145.255 2.569,144.612 2.641,143.685 2.641,143.614 2.641,142.972 2.641,142.899 
		2.641,142.329 2.641,142.044 2.498,141.474 2.498,141.329 2.854,140.544 2.854,139.901 2.927,139.401 3.282,138.616 3.64,137.618 
		3.925,136.69 3.925,136.333 3.854,135.976 3.711,135.476 3.782,134.763 3.711,134.405 3.497,133.263 3.354,133.12 2.997,132.907 
		2.712,132.692 2.498,132.55 2.427,132.479 2.569,132.192 2.569,132.122 2.569,131.979 2.284,131.337 1.927,130.407 1.855,130.267 
		1.499,130.052 1.427,130.052 1.284,130.052 1.284,130.124 0.999,130.267 0.928,130.267 0.856,130.267 0.856,130.194 0.856,130.052 
		0.785,129.552 0.785,129.481 0.642,128.196 0.499,127.624 0.356,127.269 0.143,126.911 0,126.269 0.143,125.983 0.285,125.698 
		0.499,125.413 1.569,123.485 2.069,122.343 2.142,122.271 	"/>
	<g>
		<path fill="#F26522" d="M39.292,121.28l-0.482,7.811h0.482c0.663-2.992,1.766-5.254,3.309-6.788
			c1.545-1.533,3.547-2.302,6.009-2.302c1.458,0,2.713,0.232,3.764,0.695c1.051,0.466,1.897,1.086,2.542,1.862
			c0.644,0.776,1.107,1.673,1.393,2.685c0.283,1.012,0.426,2.061,0.426,3.139c0,0.889-0.133,1.77-0.398,2.641
			s-0.691,1.656-1.277,2.355c-0.588,0.703-1.346,1.268-2.272,1.691c-0.928,0.426-2.075,0.641-3.437,0.641
			c-1.895,0-3.385-0.482-4.475-1.449c-1.09-0.965-1.635-2.131-1.635-3.496c0-0.66,0.077-1.223,0.229-1.688
			c0.152-0.463,0.309-0.842,0.469-1.135c0.161-0.295,0.27-0.508,0.326-0.639c0.057-0.133-0.01-0.201-0.199-0.201
			c-0.396,0-0.827,0.455-1.292,1.365c-0.464,0.908-0.696,2.338-0.696,4.289v6.504c0,1.002,0.176,1.717,0.525,2.143
			c0.352,0.428,1.027,0.641,2.032,0.641h1.704v10.539H22.419v-10.539h1.676c0.777,0,1.368-0.252,1.776-0.754
			c0.407-0.5,0.61-1.102,0.61-1.803v-5.396c0-0.891-0.26-1.492-0.781-1.803c-0.521-0.312-1.111-0.471-1.775-0.471h-1.506V121.28
			H39.292z"/>
		<path fill="#F26522" d="M99.965,139.771c0,0.91,0.261,1.516,0.781,1.818c0.521,0.305,1.112,0.455,1.775,0.455h1.506v10.539H87.155
			V144.8H86.7c-0.436,2.896-1.619,5.092-3.551,6.588c-1.932,1.498-4.744,2.244-8.437,2.244c-2.595,0-4.706-0.369-6.334-1.105
			c-1.63-0.74-2.888-1.672-3.778-2.801c-0.891-1.123-1.502-2.346-1.831-3.662c-0.332-1.316-0.497-2.553-0.497-3.707v-7.756
			c0-1.002-0.176-1.717-0.526-2.143c-0.351-0.428-1.027-0.641-2.03-0.641h-1.705V121.28h19.855v17.922
			c0,0.738,0.086,1.334,0.256,1.775c0.17,0.445,0.393,0.785,0.667,1.023s0.587,0.395,0.938,0.469
			c0.35,0.076,0.676,0.113,0.979,0.113c1.251,0,2.174-0.359,2.77-1.078c0.598-0.721,0.895-1.742,0.895-3.068v-3.836
			c0-1.002-0.175-1.717-0.524-2.143c-0.351-0.428-1.027-0.641-2.03-0.641H80.14V121.28h19.825V139.771z"/>
		<path fill="#F26522" d="M133.71,134.431c0-0.738-0.09-1.33-0.27-1.773c-0.18-0.445-0.406-0.787-0.682-1.023
			c-0.274-0.236-0.582-0.393-0.923-0.469c-0.341-0.078-0.673-0.113-0.994-0.113c-1.231,0-2.149,0.359-2.756,1.078
			c-0.606,0.721-0.908,1.742-0.908,3.066v4.064c0,1.002,0.175,1.717,0.525,2.143c0.351,0.428,1.026,0.641,2.03,0.641h1.534v10.539
			h-23.746v-10.539h1.675c0.777,0,1.369-0.252,1.776-0.754c0.407-0.5,0.61-1.102,0.61-1.803v-5.396c0-0.891-0.261-1.492-0.781-1.803
			c-0.521-0.312-1.113-0.471-1.775-0.471h-1.505V121.28h16.872l-0.597,7.811h0.482c0.417-2.915,1.694-5.16,3.835-6.731
			s5.047-2.358,8.721-2.358c2.595,0,4.705,0.369,6.334,1.108s2.893,1.673,3.792,2.798c0.899,1.127,1.51,2.348,1.833,3.666
			c0.321,1.314,0.482,2.549,0.482,3.705v7.982c0,1.002,0.176,1.717,0.525,2.143c0.351,0.428,1.027,0.641,2.031,0.641h1.534v10.539
			H133.71V134.431z"/>
		<path fill="#F26522" d="M188.503,131.647h-7.811c-0.55-1.363-1.401-2.443-2.557-3.238c-1.154-0.795-2.357-1.193-3.607-1.193
			c-0.852,0-1.53,0.158-2.031,0.469c-0.5,0.314-0.752,0.783-0.752,1.406c0,0.777,0.435,1.359,1.307,1.748
			c0.871,0.389,1.964,0.732,3.281,1.035c1.315,0.305,2.74,0.668,4.273,1.094c1.535,0.426,2.959,1.037,4.275,1.832
			c1.317,0.797,2.41,1.867,3.281,3.211c0.87,1.344,1.307,3.113,1.307,5.311c0,1.705-0.379,3.191-1.137,4.461
			c-0.758,1.268-1.794,2.311-3.109,3.123c-1.317,0.816-2.865,1.426-4.645,1.832c-1.779,0.408-3.703,0.611-5.766,0.611
			c-2.008,0-3.907-0.195-5.695-0.582c-1.79-0.387-3.499-1.045-5.127-1.977l-0.285,1.963h-7.499V141.36h7.784
			c0.738,1.516,1.67,2.689,2.797,3.525c1.127,0.832,2.373,1.25,3.735,1.25c1.042,0,1.785-0.197,2.23-0.584
			c0.444-0.387,0.667-0.818,0.667-1.293c0-0.777-0.436-1.377-1.307-1.801c-0.871-0.428-1.945-0.807-3.224-1.139
			c-1.278-0.33-2.685-0.699-4.218-1.109c-1.535-0.406-2.94-0.996-4.219-1.773c-1.278-0.775-2.354-1.822-3.225-3.139
			s-1.306-3.043-1.306-5.186c0-1.531,0.344-2.934,1.036-4.203c0.691-1.268,1.68-2.338,2.969-3.209
			c1.287-0.872,2.802-1.538,4.545-2.004c1.742-0.463,3.654-0.695,5.738-0.695c2.328,0,4.425,0.262,6.291,0.78
			c1.864,0.523,3.261,1.095,4.189,1.72l0.284-2.016h7.526V131.647z"/>
	</g>
	<g>
		<g>
			<path fill="#F26522" d="M42.146,76.43v10.538h8.493v10.537h-8.493v8.721c0,1.25,0.175,2.273,0.524,3.067
				c0.352,0.797,1.076,1.193,2.174,1.193c0.606,0,1.094-0.116,1.463-0.354c0.369-0.236,0.663-0.549,0.881-0.938
				c0.217-0.388,0.355-0.833,0.412-1.335c0.057-0.501,0.085-1.047,0.085-1.634v-4.231h3.267v4.571c0,1.84-0.195,3.551-0.583,5.143
				c-0.388,1.59-1.05,2.965-1.988,4.118c-0.937,1.155-2.211,2.075-3.819,2.755c-1.611,0.683-3.637,1.024-6.079,1.024
				c-2.708,0-4.868-0.333-6.478-0.994c-1.609-0.665-2.83-1.573-3.664-2.728c-0.833-1.155-1.377-2.527-1.633-4.119
				c-0.256-1.59-0.383-3.322-0.383-5.199v-9.061h-4.46v-9.372c1.421,0,2.741-0.307,3.963-0.924c1.222-0.614,2.272-1.468,3.152-2.557
				c0.881-1.089,1.563-2.335,2.045-3.735c0.483-1.402,0.725-2.897,0.725-4.487H42.146z"/>
		</g>
		<path fill="#F26522" d="M83.562,86.88c2.5,0,4.53,0.368,6.092,1.105c1.562,0.739,2.784,1.672,3.665,2.8
			c0.88,1.127,1.481,2.349,1.804,3.663c0.321,1.318,0.482,2.553,0.482,3.707v7.981c0,1.005,0.176,1.718,0.525,2.146
			c0.351,0.426,1.027,0.64,2.031,0.64h1.533v10.538H80.038v-18.151c0-0.738-0.09-1.329-0.27-1.776
			c-0.181-0.443-0.406-0.784-0.682-1.02c-0.273-0.237-0.582-0.396-0.923-0.471c-0.341-0.076-0.673-0.113-0.994-0.113
			c-1.231,0-2.149,0.357-2.756,1.079c-0.606,0.721-0.909,1.741-0.909,3.067v4.062c0,1.005,0.176,1.718,0.526,2.146
			c0.35,0.426,1.026,0.64,2.03,0.64h2.103v10.538H53.85v-10.538h1.676c0.776,0,1.367-0.251,1.774-0.753
			c0.408-0.5,0.611-1.103,0.611-1.804l-0.057-14.999c0-1.098-0.346-1.907-1.037-2.428c-0.691-0.521-1.491-0.781-2.4-0.781H53.85
			V77.619h19.655v10.538c0,0.359-0.113,0.984-0.34,1.875c-0.228,0.89-0.654,1.779-1.278,2.668l0.568,0.285
			c1.022-1.855,2.395-3.337,4.118-4.445C78.296,87.433,80.626,86.88,83.562,86.88z"/>
		<path fill="#F26522" d="M117.646,104.38c0.076,2.82,0.611,4.768,1.605,5.836c0.994,1.072,2.419,1.607,4.275,1.607
			c0.624,0,1.235-0.089,1.831-0.271c0.598-0.181,1.151-0.473,1.662-0.882c0.512-0.406,0.952-0.947,1.32-1.619
			c0.369-0.67,0.611-1.52,0.725-2.541h10.34c-0.379,2.441-1.075,4.488-2.088,6.137c-1.014,1.646-2.315,2.979-3.904,3.988
			c-1.592,1.015-3.443,1.742-5.555,2.188c-2.111,0.443-4.464,0.668-7.059,0.668c-2.67,0-5.18-0.34-7.527-1.023
			c-2.348-0.682-4.408-1.719-6.178-3.109c-1.771-1.392-3.157-3.145-4.161-5.256c-1.005-2.111-1.505-4.625-1.505-7.539
			c0-2.785,0.473-5.229,1.419-7.328c0.947-2.103,2.276-3.861,3.991-5.27c1.714-1.412,3.739-2.477,6.078-3.196
			c2.339-0.721,4.91-1.079,7.713-1.079c3.446,0,6.408,0.454,8.891,1.363c2.48,0.909,4.506,2.177,6.078,3.807
			c1.572,1.627,2.727,3.588,3.466,5.879c0.738,2.291,1.089,4.838,1.052,7.641H117.646z M121.851,93.358
			c-1.325,0-2.305,0.469-2.939,1.406s-1.056,2.484-1.265,4.646h8.324c-0.115-1.857-0.513-3.329-1.194-4.419
			S123.119,93.358,121.851,93.358z"/>
	</g>
</g>
</svg>
