<?xml version="1.0" encoding="utf-8"?>
<!-- Generator: Adobe Illustrator 16.0.0, SVG Export Plug-In . SVG Version: 6.00 Build 0)  -->
<!DOCTYPE svg PUBLIC "-//W3C//DTD SVG 1.1//EN" "http://www.w3.org/Graphics/SVG/1.1/DTD/svg11.dtd">
<svg version="1.1" xmlns="http://www.w3.org/2000/svg" xmlns:xlink="http://www.w3.org/1999/xlink" x="0px" y="0px" width="780px"
	 height="120px" viewBox="0 0 780 120" enable-background="new 0 0 780 120" xml:space="preserve">
<g id="Layer_1">
	<rect x="193" y="-200" fill="#F26522" width="100" height="101"/>
	<rect x="193" y="-316" fill="#CBCCCE" width="100" height="101"/>
	<rect x="71" y="-316" fill="#414042" width="100" height="101"/>
	<rect x="71" y="-202" fill="#496B73" width="100" height="101"/>
	<rect x="-46" y="-202" fill="#769096" width="100" height="101"/>
	<rect x="-7.5" y="-7.5" fill="#E8E8E8" stroke="#FFFFFF" stroke-miterlimit="10" width="794" height="136"/>
	<rect x="74.994" y="143.185" fill="none" width="37.051" height="37.052"/>
	<text transform="matrix(1 0 0 1 74.9937 151.8369)" font-family="'UniversLTStd'" font-size="12">3k</text>
	<g>
		<polyline fill="none" stroke="#414042" stroke-miterlimit="10" points="504,335.5 -200.5,335.5 -200.5,248.5 -210,248.5 		"/>
		<line fill="none" stroke="#414042" stroke-miterlimit="10" x1="-201" y1="273.5" x2="-209" y2="273.5"/>
		<line fill="none" stroke="#414042" stroke-miterlimit="10" x1="-201" y1="299.5" x2="-209" y2="299.5"/>
		<line fill="none" stroke="#414042" stroke-miterlimit="10" x1="-201" y1="324.5" x2="-209" y2="324.5"/>
		<line fill="none" stroke="#414042" stroke-miterlimit="10" x1="503.5" y1="343" x2="503.5" y2="335"/>
		<line fill="none" stroke="#414042" stroke-miterlimit="10" x1="272.5" y1="343" x2="272.5" y2="335"/>
		<line fill="none" stroke="#414042" stroke-miterlimit="10" x1="387.5" y1="343" x2="387.5" y2="335"/>
		<line fill="none" stroke="#414042" stroke-miterlimit="10" x1="156.5" y1="343" x2="156.5" y2="335"/>
		<line fill="none" stroke="#414042" stroke-miterlimit="10" x1="41.5" y1="343" x2="41.5" y2="335"/>
		<line fill="none" stroke="#414042" stroke-miterlimit="10" x1="-74.5" y1="343" x2="-74.5" y2="335"/>
		<line fill="none" stroke="#414042" stroke-miterlimit="10" x1="-189.5" y1="343" x2="-189.5" y2="335"/>
		<rect x="-219.845" y="244.915" fill="none" width="13.261" height="10.53"/>
		<text transform="matrix(1 0 0 1 -219.8447 249.9619)" font-family="'UniversLTStd'" font-size="7">4k</text>
		<rect x="-191.564" y="344.443" fill="none" width="4.128" height="10.53"/>
		<text transform="matrix(1 0 0 1 -191.564 349.4902)" font-family="'UniversLTStd'" font-size="7">5</text>
		<rect x="-78.333" y="344.443" fill="none" width="7.667" height="10.53"/>
		<rect x="37.667" y="344.443" fill="none" width="7.895" height="10.53"/>
		<text transform="matrix(1 0 0 1 37.6665 349.4902)" font-family="'UniversLTStd'" font-size="7">15</text>
		<rect x="152.267" y="344.443" fill="none" width="8.467" height="10.53"/>
		<text transform="matrix(1 0 0 1 152.2666 349.4902)" font-family="'UniversLTStd'" font-size="7">20</text>
		<rect x="268.496" y="344.443" fill="none" width="8.009" height="10.53"/>
		<text transform="matrix(1 0 0 1 268.4956 349.4902)" font-family="'UniversLTStd'" font-size="7">25</text>
		<rect x="383.267" y="344.443" fill="none" width="8.467" height="10.53"/>
		<text transform="matrix(1 0 0 1 383.2666 349.4902)" font-family="'UniversLTStd'" font-size="7">30</text>
		<rect x="499.381" y="344.443" fill="none" width="8.238" height="10.53"/>
		<text transform="matrix(1 0 0 1 499.3813 349.4902)" font-family="'UniversLTStd'" font-size="7">35</text>
	</g>
	<g>
		<polyline fill="none" stroke="#8D8D8E" stroke-miterlimit="10" points="40,255.5 47.517,255.5 752,255.5 		"/>
		<polyline fill="none" stroke="#8D8D8E" stroke-miterlimit="10" points="40,232.5 47.517,232.5 752,232.5 		"/>
		<polyline fill="none" stroke="#8D8D8E" stroke-miterlimit="10" points="40,208.5 47.517,208.5 752,208.5 		"/>
		<polyline fill="none" stroke="#8D8D8E" stroke-miterlimit="10" points="40,185.5 47.517,185.5 752,185.5 		"/>
		<polyline fill="none" stroke="#414042" stroke-miterlimit="10" points="753,272.5 48.5,272.5 48.5,185.5 39,185.5 		"/>
		<line fill="none" stroke="#414042" stroke-miterlimit="10" x1="48" y1="208.5" x2="40" y2="208.5"/>
		<line fill="none" stroke="#414042" stroke-miterlimit="10" x1="48" y1="232.5" x2="40" y2="232.5"/>
		<line fill="none" stroke="#414042" stroke-miterlimit="10" x1="48" y1="255.5" x2="40" y2="255.5"/>
		<rect x="27.483" y="267.839" fill="none" width="13.261" height="20.006"/>
		<text transform="matrix(1 0 0 1 28.2754 272.8867)"><tspan x="0" y="0" fill="#414042" font-family="'UniversLTStd'" font-size="7">ele.</tspan><tspan x="1.176" y="8.4" fill="#414042" font-family="'UniversLTStd'" font-size="7">(ft)</tspan></text>
		<g>
			<rect x="27.483" y="181.997" fill="none" width="13.261" height="5.964"/>
			<text transform="matrix(1 0 0 1 30.4175 187.0449)" fill="#414042" font-family="'UniversLTStd'" font-size="7">4k</text>
		</g>
		<g>
			<rect x="27.483" y="204.816" fill="none" width="13.261" height="5.964"/>
			<text transform="matrix(1 0 0 1 30.4175 209.8633)" fill="#414042" font-family="'UniversLTStd'" font-size="7">3k</text>
		</g>
		<g>
			<rect x="27.483" y="229.228" fill="none" width="13.261" height="5.964"/>
			<text transform="matrix(1 0 0 1 30.4175 234.2754)" fill="#414042" font-family="'UniversLTStd'" font-size="7">2k</text>
		</g>
		<g>
			<rect x="27.483" y="252.127" fill="none" width="13.261" height="5.964"/>
			<text transform="matrix(1 0 0 1 30.4175 257.1738)" fill="#414042" font-family="'UniversLTStd'" font-size="7">1k</text>
		</g>
		<path fill="none" stroke="#414042" stroke-miterlimit="10" d="M48.017,185.5"/>
	</g>
	<g>
		<polyline fill="none" stroke="#8D8D8E" stroke-miterlimit="10" points="40,86.5 47.517,86.5 752,86.5 		"/>
		<polyline fill="none" stroke="#8D8D8E" stroke-miterlimit="10" points="40,63.5 47.517,63.5 752,63.5 		"/>
		<polyline fill="none" stroke="#8D8D8E" stroke-miterlimit="10" points="40,39.5 47.517,39.5 752,39.5 		"/>
		<polyline fill="none" stroke="#8D8D8E" stroke-miterlimit="10" points="40,16.5 47.517,16.5 752,16.5 		"/>
		<polyline fill="none" stroke="#414042" stroke-miterlimit="10" points="753,103.5 48.5,103.5 48.5,16.5 39,16.5 		"/>
		<line fill="none" stroke="#414042" stroke-miterlimit="10" x1="48" y1="39.5" x2="40" y2="39.5"/>
		<line fill="none" stroke="#414042" stroke-miterlimit="10" x1="48" y1="63.5" x2="40" y2="63.5"/>
		<line fill="none" stroke="#414042" stroke-miterlimit="10" x1="48" y1="86.5" x2="40" y2="86.5"/>
		<rect x="27.483" y="98.839" fill="none" width="13.261" height="20.006"/>
		<text transform="matrix(1 0 0 1 28.2754 103.8867)"><tspan x="0" y="0" fill="#414042" font-family="'UniversLTStd'" font-size="7">ele.</tspan><tspan x="1.176" y="8.4" fill="#414042" font-family="'UniversLTStd'" font-size="7">(ft)</tspan></text>
		<g>
			<rect x="27.483" y="12.997" fill="none" width="13.261" height="5.964"/>
			<text transform="matrix(1 0 0 1 30.4175 18.0444)" fill="#414042" font-family="'UniversLTStd'" font-size="7">4k</text>
		</g>
		<g>
			<rect x="27.483" y="35.816" fill="none" width="13.261" height="5.964"/>
			<text transform="matrix(1 0 0 1 30.4175 40.8638)" fill="#414042" font-family="'UniversLTStd'" font-size="7">3k</text>
		</g>
		<g>
			<rect x="27.483" y="60.228" fill="none" width="13.261" height="5.964"/>
			<text transform="matrix(1 0 0 1 30.4175 65.2754)" fill="#414042" font-family="'UniversLTStd'" font-size="7">2k</text>
		</g>
		<g>
			<rect x="27.483" y="83.127" fill="none" width="13.261" height="5.964"/>
			<text transform="matrix(1 0 0 1 30.4175 88.1738)" fill="#414042" font-family="'UniversLTStd'" font-size="7">1k</text>
		</g>
		<path fill="none" stroke="#414042" stroke-miterlimit="10" d="M48.017,16.5"/>
	</g>
</g>
<g id="Layer_2">
	<polyline fill="#F8B290" stroke="#F26522" stroke-miterlimit="10" points="48.363,103.427 48.83,95.25 74.531,93.5 94.885,93.5 
		119.663,94.365 147.982,91.699 166.566,84.615 181.61,83.729 219.664,93.46 310.814,94.345 370.991,93.46 403.734,95.23 
		425.858,90.806 459.487,89.92 501.964,96.999 557.716,92.574 593.115,94.344 623.204,89.035 663.911,83.726 701.08,89.92 
		740,95.848 751.5,103.78 	"/>
</g>
</svg>
