<?xml version="1.0" encoding="utf-8"?>
<!-- Generator: Adobe Illustrator 16.0.0, SVG Export Plug-In . SVG Version: 6.00 Build 0)  -->
<!DOCTYPE svg PUBLIC "-//W3C//DTD SVG 1.1//EN" "http://www.w3.org/Graphics/SVG/1.1/DTD/svg11.dtd">
<svg version="1.1" id="Layer_1" xmlns="http://www.w3.org/2000/svg" xmlns:xlink="http://www.w3.org/1999/xlink" x="0px" y="0px"
	 width="780px" height="120px" viewBox="0 0 780 120" enable-background="new 0 0 780 120" xml:space="preserve">
<g>
	<g>
		<polyline fill="none" stroke="#8D8D8E" stroke-width="1.0751" stroke-miterlimit="10" points="13.977,83.994 22.058,83.994 
			779.443,83.994 		"/>
		<polyline fill="none" stroke="#8D8D8E" stroke-width="1.0751" stroke-miterlimit="10" points="13.977,59.268 22.058,59.268 
			779.443,59.268 		"/>
		<polyline fill="none" stroke="#8D8D8E" stroke-width="1.0751" stroke-miterlimit="10" points="13.977,33.465 22.058,33.465 
			779.443,33.465 		"/>
		<polyline fill="none" stroke="#8D8D8E" stroke-width="1.0751" stroke-miterlimit="10" points="13.977,8.738 22.058,8.738 
			779.443,8.738 		"/>
		<polyline fill="none" stroke="#414042" stroke-width="1.0751" stroke-miterlimit="10" points="780.52,102.271 23.114,102.271 
			23.114,8.738 12.902,8.738 		"/>
		
			<line fill="none" stroke="#414042" stroke-width="1.0751" stroke-miterlimit="10" x1="22.578" y1="33.465" x2="13.977" y2="33.465"/>
		
			<line fill="none" stroke="#414042" stroke-width="1.0751" stroke-miterlimit="10" x1="22.578" y1="59.268" x2="13.977" y2="59.268"/>
		
			<line fill="none" stroke="#414042" stroke-width="1.0751" stroke-miterlimit="10" x1="22.578" y1="83.994" x2="13.977" y2="83.994"/>
		<rect x="0.52" y="97.261" fill="none" width="14.257" height="21.508"/>
		<text transform="matrix(1 0 0 1 1.3706 102.6875)" fill="#414042" font-family="'UniversLTStd'" font-size="7.526">ele.</text>
		<text transform="matrix(1 0 0 1 2.6357 111.7178)" fill="#414042" font-family="'UniversLTStd'" font-size="7.526">(ft)</text>
		<g>
			<rect x="0.52" y="4.972" fill="none" width="14.257" height="6.412"/>
			<text transform="matrix(1 0 0 1 3.6743 10.3984)" fill="#414042" font-family="'UniversLTStd'" font-size="7.526">4k</text>
		</g>
		<g>
			<rect x="0.52" y="29.505" fill="none" width="14.257" height="6.412"/>
			<text transform="matrix(1 0 0 1 3.6743 34.9312)" fill="#414042" font-family="'UniversLTStd'" font-size="7.526">3k</text>
		</g>
		<g>
			<rect x="0.52" y="55.75" fill="none" width="14.257" height="6.411"/>
			<text transform="matrix(1 0 0 1 3.6743 61.1758)" fill="#414042" font-family="'UniversLTStd'" font-size="7.526">2k</text>
		</g>
		<g>
			<rect x="0.52" y="80.368" fill="none" width="14.257" height="6.413"/>
			<text transform="matrix(1 0 0 1 3.6743 85.7949)" fill="#414042" font-family="'UniversLTStd'" font-size="7.526">1k</text>
		</g>
		<path fill="none" stroke="#414042" stroke-width="1.0751" stroke-miterlimit="10" d="M22.596,8.738"/>
	</g>
	<g id="Layer_2">
		<polyline fill="#F8B290" stroke="#F26522" stroke-width="1.0751" stroke-miterlimit="10" points="22.968,102.193 23.47,93.401 
			51.101,91.521 72.983,91.521 99.622,92.449 130.067,89.585 150.046,81.968 166.22,81.015 222.183,97.965 287.831,90.355 
			359.185,77.034 406.927,85.769 428.811,88.624 506.826,91.478 552.494,99.089 570.57,90.525 608.627,92.427 640.976,86.599 
			694.082,95.82 734.041,95.82 766.542,93.923 778.907,102.514 		"/>
	</g>
</g>
</svg>
