<?xml version="1.0" encoding="utf-8"?>
<!-- Generator: Adobe Illustrator 16.0.0, SVG Export Plug-In . SVG Version: 6.00 Build 0)  -->
<!DOCTYPE svg PUBLIC "-//W3C//DTD SVG 1.1//EN" "http://www.w3.org/Graphics/SVG/1.1/DTD/svg11.dtd">
<svg version="1.1" id="Layer_1" xmlns="http://www.w3.org/2000/svg" xmlns:xlink="http://www.w3.org/1999/xlink" x="0px" y="0px"
	 width="780px" height="120px" viewBox="0 0 780 120" enable-background="new 0 0 780 120" xml:space="preserve">
<g>
	<polyline fill="none" stroke="#8D8D8E" stroke-width="1.0765" stroke-miterlimit="10" points="13.475,84.024 21.567,84.024 
		779.961,84.024 	"/>
	<polyline fill="none" stroke="#8D8D8E" stroke-width="1.0765" stroke-miterlimit="10" points="13.475,59.265 21.567,59.265 
		779.961,59.265 	"/>
	<polyline fill="none" stroke="#8D8D8E" stroke-width="1.0765" stroke-miterlimit="10" points="13.475,33.428 21.567,33.428 
		779.961,33.428 	"/>
	<polyline fill="none" stroke="#8D8D8E" stroke-width="1.0765" stroke-miterlimit="10" points="13.475,8.668 21.567,8.668 
		779.961,8.668 	"/>
	<polyline fill="none" stroke="#414042" stroke-width="1.0765" stroke-miterlimit="10" points="781.038,102.326 22.625,102.326 
		22.625,8.668 12.399,8.668 	"/>
	
		<line fill="none" stroke="#414042" stroke-width="1.0765" stroke-miterlimit="10" x1="22.087" y1="33.428" x2="13.475" y2="33.428"/>
	
		<line fill="none" stroke="#414042" stroke-width="1.0765" stroke-miterlimit="10" x1="22.087" y1="59.265" x2="13.475" y2="59.265"/>
	
		<line fill="none" stroke="#414042" stroke-width="1.0765" stroke-miterlimit="10" x1="22.087" y1="84.024" x2="13.475" y2="84.024"/>
	<rect y="97.308" fill="none" width="14.276" height="21.537"/>
	<g enable-background="new    ">
		<path fill="#414042" d="M1.946,100.978c-0.015,0.784,0.31,1.364,1.086,1.364c0.46,0,0.829-0.24,0.89-0.783H4.63
			c-0.022,0.188-0.052,0.497-0.324,0.792c-0.166,0.188-0.542,0.505-1.304,0.505c-1.191,0-1.756-0.739-1.756-1.938
			c0-0.746,0.151-1.364,0.746-1.778c0.362-0.257,0.814-0.28,1.033-0.28c1.696,0,1.659,1.501,1.644,2.119H1.946z M3.944,100.479
			c0.008-0.361-0.06-1.115-0.935-1.115c-0.46,0-1.018,0.278-1.033,1.115H3.944z"/>
		<path fill="#414042" d="M5.722,97.306H6.43v5.437H5.722V97.306z"/>
		<path fill="#414042" d="M8.231,100.978c-0.015,0.784,0.309,1.364,1.085,1.364c0.46,0,0.83-0.24,0.89-0.783h0.708
			c-0.022,0.188-0.052,0.497-0.324,0.792c-0.166,0.188-0.542,0.505-1.304,0.505c-1.191,0-1.756-0.739-1.756-1.938
			c0-0.746,0.151-1.364,0.746-1.778c0.362-0.257,0.814-0.28,1.033-0.28c1.696,0,1.659,1.501,1.644,2.119H8.231z M10.229,100.479
			c0.008-0.361-0.06-1.115-0.935-1.115c-0.46,0-1.018,0.278-1.033,1.115H10.229z"/>
		<path fill="#414042" d="M11.938,101.837h0.837v0.905h-0.837V101.837z"/>
	</g>
	<g enable-background="new    ">
		<path fill="#414042" d="M3.566,112.713c-0.407-1.003-0.897-2.254-0.897-3.355c0-0.596,0.136-1.184,0.31-1.756
			c0.211-0.68,0.407-1.162,0.535-1.486h0.498c-0.121,0.37-0.287,0.883-0.445,1.599c-0.158,0.693-0.211,1.162-0.211,1.629
			c0,1.07,0.264,1.937,0.701,3.37H3.566z"/>
		<path fill="#414042" d="M7.185,106.869c-0.121-0.007-0.272-0.015-0.415-0.015c-0.573,0-0.573,0.286-0.573,0.55V108h0.881v0.513
			H6.197v3.273H5.496v-3.273H4.749V108h0.747v-0.429c0-0.521,0.03-0.709,0.159-0.906c0.158-0.239,0.46-0.414,0.949-0.414
			c0.204,0,0.43,0.03,0.581,0.053V106.869z"/>
		<path fill="#414042" d="M7.032,107.985h0.67v-0.792l0.702-0.227v1.019h0.845v0.52H8.404v2.27c0,0.188,0,0.505,0.505,0.505
			c0.144,0,0.279-0.021,0.34-0.036v0.55c-0.128,0.023-0.332,0.045-0.588,0.045c-0.649,0-0.958-0.188-0.958-0.806v-2.527h-0.67
			V107.985z"/>
		<path fill="#414042" d="M10.521,106.115c0.407,1.003,0.897,2.247,0.897,3.348c0,0.596-0.136,1.185-0.309,1.757
			c-0.211,0.68-0.407,1.169-0.536,1.493h-0.498c0.121-0.376,0.287-0.89,0.445-1.605c0.159-0.688,0.211-1.162,0.211-1.629
			c0-1.063-0.264-1.931-0.702-3.363H10.521z"/>
	</g>
	<g>
		<rect y="4.897" fill="none" width="14.276" height="6.42"/>
		<g enable-background="new    ">
			<path fill="#414042" d="M5.723,9.199H3.371V8.302l2.262-3.257h0.814v3.543h0.761v0.611H6.447v1.131H5.723V9.199z M5.745,8.588
				V5.837L3.943,8.588H5.745z"/>
			<path fill="#414042" d="M7.96,4.849h0.701v3.242l1.417-1.545h0.928L9.408,8.151l1.696,2.179h-0.927L8.661,8.287v2.043H7.96V4.849
				z"/>
		</g>
	</g>
	<g>
		<rect y="29.462" fill="none" width="14.276" height="6.42"/>
		<g enable-background="new    ">
			<path fill="#414042" d="M4.245,33.554c-0.008,0.498,0.316,0.852,0.957,0.852c0.731,0,1.041-0.468,1.041-0.927
				c0-0.551-0.37-0.837-0.754-0.92c-0.271-0.053-0.46-0.045-0.725-0.038v-0.61c0.521,0.045,1.396-0.06,1.396-0.905
				c0-0.587-0.399-0.821-0.92-0.821c-0.393,0-0.882,0.173-0.95,0.821H3.528c0.046-1.296,1.268-1.425,1.689-1.425
				c1.138,0,1.704,0.686,1.704,1.41c0,0.43-0.234,1.048-1.041,1.229c1.116,0.159,1.116,1.161,1.116,1.268
				c0,0.731-0.595,1.538-1.81,1.538c-0.55,0-1.101-0.159-1.432-0.543c-0.294-0.333-0.302-0.71-0.31-0.928H4.245z"/>
			<path fill="#414042" d="M7.96,29.414h0.701v3.242l1.417-1.545h0.928l-1.598,1.605l1.696,2.179h-0.927l-1.515-2.043v2.043H7.96
				V29.414z"/>
		</g>
	</g>
	<g>
		<rect y="55.743" fill="none" width="14.276" height="6.419"/>
		<g enable-background="new    ">
			<path fill="#414042" d="M3.559,60.489l1.365-1.341c0.287-0.279,0.573-0.581,0.807-0.898c0.302-0.414,0.385-0.647,0.385-0.927
				c0-0.256-0.091-0.852-0.837-0.852c-0.837,0-0.852,0.716-0.852,0.913H3.634c0.007-0.256,0.03-0.755,0.483-1.147
				c0.361-0.309,0.798-0.376,1.13-0.376c0.8,0,1.614,0.407,1.614,1.523c0,0.332-0.022,0.588-0.588,1.303
				c-0.151,0.189-0.814,0.875-0.965,1.026L4.396,60.58h2.481v0.596H3.559V60.489z"/>
			<path fill="#414042" d="M7.96,55.694h0.701v3.242l1.417-1.545h0.928l-1.598,1.606l1.696,2.179h-0.927l-1.515-2.044v2.044H7.96
				V55.694z"/>
		</g>
	</g>
	<g>
		<rect y="80.394" fill="none" width="14.276" height="6.421"/>
		<g enable-background="new    ">
			<path fill="#414042" d="M5.202,81.432c-0.324,0.271-0.844,0.58-1.214,0.753v-0.753c0.49-0.257,0.973-0.573,1.267-0.822h0.671
				v5.217H5.202V81.432z"/>
			<path fill="#414042" d="M7.96,80.346h0.701v3.242l1.417-1.546h0.928l-1.598,1.605l1.696,2.179h-0.927l-1.515-2.043v2.043H7.96
				V80.346z"/>
		</g>
	</g>
	<path fill="none" stroke="#414042" stroke-width="1.0765" stroke-miterlimit="10" d="M22.105,8.668"/>
</g>
<g id="Layer_2">
	<polyline fill="#F8B290" stroke="#F26522" stroke-width="1.0765" stroke-miterlimit="10" points="22.478,102.247 22.981,70.838 
		45.559,67.886 57.913,72.297 74.837,67.877 89.37,67.877 111.978,68.415 135.123,65.187 145.27,64.647 174.954,64.647 
		199.175,65.187 211.65,69.605 225.941,67.578 274.528,80.795 324.066,80.795 334.547,64.721 357.412,68.592 380.032,61.927 
		390.965,69.229 409.809,78.171 440.317,63.028 465.616,72.719 489.837,71.644 521.596,62.495 535.053,60.879 553.82,70.532 
		591.763,67.886 611.775,72.464 631.781,75.322 656.699,65.187 682.272,69.605 732.766,73.417 773.73,81.039 779.424,102.628 	"/>
</g>
</svg>
