<?xml version="1.0" encoding="utf-8"?>
<!-- Generator: Adobe Illustrator 16.0.0, SVG Export Plug-In . SVG Version: 6.00 Build 0)  -->
<!DOCTYPE svg PUBLIC "-//W3C//DTD SVG 1.1//EN" "http://www.w3.org/Graphics/SVG/1.1/DTD/svg11.dtd">
<svg version="1.1" id="Layer_1" xmlns="http://www.w3.org/2000/svg" xmlns:xlink="http://www.w3.org/1999/xlink" x="0px" y="0px"
	 width="780px" height="120px" viewBox="0 0 780 120" enable-background="new 0 0 780 120" xml:space="preserve">
<g>
	<polyline fill="none" stroke="#8D8D8E" stroke-width="1.0765" stroke-miterlimit="10" points="13.474,78.807 21.566,78.807 
		779.924,78.807 	"/>
	<polyline fill="none" stroke="#8D8D8E" stroke-width="1.0765" stroke-miterlimit="10" points="13.474,54.048 21.566,54.048 
		779.924,54.048 	"/>
	<polyline fill="none" stroke="#8D8D8E" stroke-width="1.0765" stroke-miterlimit="10" points="13.474,28.212 21.566,28.212 
		779.924,28.212 	"/>
	<polyline fill="none" stroke="#8D8D8E" stroke-width="1.0765" stroke-miterlimit="10" points="13.474,3.453 21.566,3.453 
		779.924,3.453 	"/>
	<polyline fill="none" stroke="#414042" stroke-width="1.0765" stroke-miterlimit="10" points="781,97.105 22.625,97.105 
		22.625,3.453 12.398,3.453 	"/>
	
		<line fill="none" stroke="#414042" stroke-width="1.0765" stroke-miterlimit="10" x1="22.086" y1="28.212" x2="13.474" y2="28.212"/>
	
		<line fill="none" stroke="#414042" stroke-width="1.0765" stroke-miterlimit="10" x1="22.086" y1="54.048" x2="13.474" y2="54.048"/>
	
		<line fill="none" stroke="#414042" stroke-width="1.0765" stroke-miterlimit="10" x1="22.086" y1="78.807" x2="13.474" y2="78.807"/>
	<rect y="92.089" fill="none" width="14.275" height="21.536"/>
	<g enable-background="new    ">
		<path fill="#414042" d="M1.946,95.759c-0.015,0.784,0.309,1.364,1.085,1.364c0.46,0,0.829-0.242,0.89-0.783H4.63
			c-0.022,0.188-0.052,0.497-0.324,0.791c-0.165,0.188-0.542,0.506-1.304,0.506c-1.191,0-1.756-0.738-1.756-1.938
			c0-0.746,0.15-1.365,0.746-1.779c0.362-0.256,0.814-0.279,1.033-0.279c1.696,0,1.659,1.502,1.644,2.119L1.946,95.759L1.946,95.759
			z M3.944,95.261c0.008-0.36-0.06-1.116-0.935-1.116c-0.46,0-1.018,0.279-1.033,1.116H3.944z"/>
		<path fill="#414042" d="M5.721,92.087H6.43v5.437H5.721V92.087z"/>
		<path fill="#414042" d="M8.23,95.759c-0.015,0.784,0.309,1.364,1.085,1.364c0.46,0,0.83-0.242,0.89-0.783h0.708
			c-0.022,0.188-0.052,0.497-0.324,0.791c-0.166,0.188-0.542,0.506-1.304,0.506c-1.191,0-1.757-0.738-1.757-1.938
			c0-0.746,0.151-1.365,0.747-1.779c0.361-0.256,0.814-0.279,1.033-0.279c1.696,0,1.659,1.502,1.644,2.119L8.23,95.759L8.23,95.759z
			 M10.229,95.261c0.007-0.36-0.061-1.116-0.935-1.116c-0.46,0-1.018,0.279-1.033,1.116H10.229z"/>
		<path fill="#414042" d="M11.938,96.618h0.837v0.903h-0.837V96.618z"/>
	</g>
	<g enable-background="new    ">
		<path fill="#414042" d="M3.566,107.492c-0.407-1.002-0.897-2.253-0.897-3.354c0-0.597,0.136-1.186,0.309-1.758
			c0.211-0.68,0.407-1.161,0.536-1.484h0.497c-0.12,0.367-0.286,0.881-0.445,1.598c-0.158,0.693-0.211,1.162-0.211,1.629
			c0,1.07,0.264,1.938,0.701,3.369H3.566z"/>
		<path fill="#414042" d="M7.184,101.648c-0.121-0.006-0.271-0.014-0.415-0.014c-0.573,0-0.573,0.285-0.573,0.551v0.596h0.882v0.513
			H6.196v3.272H5.495v-3.272H4.749v-0.513h0.747v-0.43c0-0.521,0.03-0.709,0.158-0.906c0.158-0.24,0.46-0.413,0.95-0.413
			c0.204,0,0.43,0.03,0.581,0.053L7.184,101.648L7.184,101.648z"/>
		<path fill="#414042" d="M7.031,102.766h0.671v-0.791l0.701-0.227v1.018h0.845v0.521H8.403v2.271c0,0.188,0,0.504,0.505,0.504
			c0.144,0,0.279-0.021,0.339-0.035v0.55c-0.128,0.022-0.332,0.045-0.588,0.045c-0.649,0-0.958-0.188-0.958-0.806v-2.527h-0.67
			V102.766z"/>
		<path fill="#414042" d="M10.521,100.896c0.408,1.002,0.897,2.246,0.897,3.347c0,0.596-0.136,1.185-0.309,1.757
			c-0.211,0.68-0.407,1.17-0.535,1.492h-0.498c0.121-0.375,0.287-0.889,0.444-1.604c0.159-0.688,0.211-1.162,0.211-1.63
			c0-1.063-0.264-1.931-0.701-3.362H10.521L10.521,100.896z"/>
	</g>
	<g>
		<rect y="-0.317" fill="none" width="14.275" height="6.42"/>
		<g enable-background="new    ">
			<path fill="#414042" d="M5.723,3.984H3.37V3.087L5.632-0.17h0.814v3.543h0.761v0.611H6.446v1.131H5.723V3.984z M5.745,3.374
				V0.622L3.943,3.374H5.745z"/>
			<path fill="#414042" d="M7.959-0.366H8.66v3.242l1.417-1.546h0.928L9.407,2.936l1.696,2.179h-0.927L8.661,3.072v2.043H7.959
				V-0.366z"/>
		</g>
	</g>
	<g>
		<rect y="24.246" fill="none" width="14.275" height="6.421"/>
		<g enable-background="new    ">
			<path fill="#414042" d="M4.245,28.337c-0.007,0.499,0.316,0.853,0.957,0.853c0.731,0,1.041-0.468,1.041-0.927
				c0-0.551-0.369-0.837-0.754-0.92c-0.271-0.053-0.459-0.045-0.724-0.038v-0.61c0.52,0.045,1.395-0.06,1.395-0.905
				c0-0.588-0.4-0.821-0.92-0.821c-0.392,0-0.882,0.173-0.95,0.821H3.528c0.045-1.296,1.267-1.424,1.688-1.424
				c1.139,0,1.704,0.685,1.704,1.41c0,0.43-0.234,1.048-1.041,1.229c1.116,0.159,1.116,1.161,1.116,1.267
				c0,0.732-0.596,1.538-1.81,1.538c-0.55,0-1.1-0.159-1.432-0.542c-0.294-0.332-0.302-0.71-0.309-0.928h0.801V28.337z"/>
			<path fill="#414042" d="M7.959,24.199H8.66v3.242l1.417-1.545h0.928L9.407,27.5l1.696,2.18h-0.927l-1.515-2.044v2.044H7.959
				V24.199z"/>
		</g>
	</g>
	<g>
		<rect y="50.525" fill="none" width="14.275" height="6.419"/>
		<g enable-background="new    ">
			<path fill="#414042" d="M3.559,55.272l1.364-1.342c0.287-0.279,0.573-0.58,0.807-0.897c0.302-0.414,0.385-0.647,0.385-0.927
				c0-0.256-0.09-0.852-0.836-0.852c-0.837,0-0.853,0.716-0.853,0.913H3.634c0.008-0.257,0.03-0.755,0.483-1.147
				c0.361-0.309,0.798-0.376,1.13-0.376c0.799,0,1.614,0.407,1.614,1.523c0,0.331-0.023,0.587-0.588,1.304
				c-0.15,0.189-0.814,0.875-0.965,1.026l-0.913,0.866h2.48v0.596H3.559V55.272z"/>
			<path fill="#414042" d="M7.959,50.478H8.66v3.242l1.417-1.545h0.928L9.407,53.78l1.696,2.179h-0.927l-1.515-2.043v2.043H7.959
				V50.478z"/>
		</g>
	</g>
	<g>
		<rect y="75.176" fill="none" width="14.275" height="6.42"/>
		<g enable-background="new    ">
			<path fill="#414042" d="M5.202,76.213c-0.324,0.271-0.844,0.58-1.213,0.755v-0.755c0.49-0.256,0.973-0.572,1.267-0.82h0.67v5.217
				H5.202V76.213z"/>
			<path fill="#414042" d="M7.959,75.127H8.66v3.242l1.417-1.546h0.928l-1.598,1.604l1.696,2.18h-0.927l-1.515-2.043v2.043H7.959
				V75.127z"/>
		</g>
	</g>
	<path fill="none" stroke="#414042" stroke-width="1.0765" stroke-miterlimit="10" d="M22.104,3.453"/>
</g>
<polyline fill="#F8B290" stroke="#F26522" stroke-width="1.0765" stroke-miterlimit="10" points="22.477,97.027 43.033,85.734 
	57.151,87.499 82.14,73.652 111.366,43.888 128.621,64.559 146.269,24.851 167.446,49.557 178.915,36.321 208.034,23.337 
	227.446,87.499 239.798,73.38 257.445,18.674 281.27,68.086 309.504,34.557 319.21,62.792 332.447,48.674 354.504,87.499 
	364.211,83.968 401.27,42.498 425.977,36.321 467.445,13.38 483.329,18.674 497.445,52.204 552.152,46.027 589.211,38.085 
	604.212,8.085 625.388,9.85 643.917,32.792 660.681,44.263 675.683,54.851 706.566,13.38 726.859,97.408 "/>
</svg>
