<?xml version="1.0" encoding="utf-8"?>
<!-- Generator: Adobe Illustrator 16.0.0, SVG Export Plug-In . SVG Version: 6.00 Build 0)  -->
<!DOCTYPE svg PUBLIC "-//W3C//DTD SVG 1.1//EN" "http://www.w3.org/Graphics/SVG/1.1/DTD/svg11.dtd">
<svg version="1.1" id="Layer_1" xmlns="http://www.w3.org/2000/svg" xmlns:xlink="http://www.w3.org/1999/xlink" x="0px" y="0px"
	 width="780px" height="120px" viewBox="0 0 780 120" enable-background="new 0 0 780 120" xml:space="preserve">
<rect x="193" y="-200" fill="#F26522" width="100" height="101"/>
<rect x="193" y="-316" fill="#CBCCCE" width="100" height="101"/>
<rect x="71" y="-316" fill="#414042" width="100" height="101"/>
<rect x="71" y="-202" fill="#496B73" width="100" height="101"/>
<rect x="-46" y="-202" fill="#769096" width="100" height="101"/>
<rect x="74.994" y="143.186" fill="none" width="37.051" height="37.051"/>
<g>
	<polyline fill="none" stroke="#414042" stroke-miterlimit="10" points="504,335.5 -200.5,335.5 -200.5,248.5 -210,248.5 	"/>
	<line fill="none" stroke="#414042" stroke-miterlimit="10" x1="-201" y1="273.5" x2="-209" y2="273.5"/>
	<line fill="none" stroke="#414042" stroke-miterlimit="10" x1="-201" y1="299.5" x2="-209" y2="299.5"/>
	<line fill="none" stroke="#414042" stroke-miterlimit="10" x1="-201" y1="324.5" x2="-209" y2="324.5"/>
	<line fill="none" stroke="#414042" stroke-miterlimit="10" x1="503.5" y1="343" x2="503.5" y2="335"/>
	<line fill="none" stroke="#414042" stroke-miterlimit="10" x1="272.5" y1="343" x2="272.5" y2="335"/>
	<line fill="none" stroke="#414042" stroke-miterlimit="10" x1="387.5" y1="343" x2="387.5" y2="335"/>
	<line fill="none" stroke="#414042" stroke-miterlimit="10" x1="156.5" y1="343" x2="156.5" y2="335"/>
	<line fill="none" stroke="#414042" stroke-miterlimit="10" x1="41.5" y1="343" x2="41.5" y2="335"/>
	<line fill="none" stroke="#414042" stroke-miterlimit="10" x1="-74.5" y1="343" x2="-74.5" y2="335"/>
	<line fill="none" stroke="#414042" stroke-miterlimit="10" x1="-189.5" y1="343" x2="-189.5" y2="335"/>
	<rect x="-219.845" y="244.915" fill="none" width="13.261" height="10.53"/>
	<g enable-background="new    ">
		<path d="M-217.463,248.911h-2.185v-0.833l2.101-3.025h0.756v3.291h0.708v0.567h-0.708v1.051h-0.672V248.911z M-217.442,248.344
			v-2.556l-1.674,2.556H-217.442z"/>
		<path d="M-215.385,244.87h0.651v3.012l1.316-1.436h0.862l-1.485,1.491l1.576,2.024h-0.861l-1.408-1.898v1.898h-0.651V244.87z"/>
	</g>
	<rect x="-191.564" y="344.443" fill="none" width="4.128" height="10.529"/>
	<g enable-background="new    ">
		<path d="M-190.443,348.342c0.014,0.49,0.441,0.687,0.806,0.687c0.847,0,0.959-0.799,0.959-1.114c0-0.658-0.357-1.043-0.917-1.043
			c-0.28,0-0.504,0.104-0.651,0.252c-0.147,0.147-0.189,0.294-0.224,0.406h-0.638l0.126-2.886h2.724v0.567h-2.122l-0.091,1.568
			c0.147-0.146,0.455-0.448,1.022-0.448c0.974,0,1.45,0.764,1.45,1.598c0,0.952-0.672,1.674-1.73,1.674
			c-0.784,0-1.408-0.435-1.443-1.261H-190.443z"/>
	</g>
	<rect x="-78.333" y="344.443" fill="none" width="7.667" height="10.529"/>
	<rect x="37.667" y="344.443" fill="none" width="7.895" height="10.529"/>
	<g enable-background="new    ">
		<path d="M39.564,345.407c-0.301,0.252-0.784,0.539-1.127,0.7v-0.7c0.455-0.238,0.903-0.532,1.177-0.764h0.623v4.847h-0.672
			V345.407z"/>
		<path d="M42.574,348.342c0.014,0.49,0.441,0.687,0.806,0.687c0.847,0,0.959-0.799,0.959-1.114c0-0.658-0.357-1.043-0.917-1.043
			c-0.28,0-0.504,0.104-0.651,0.252c-0.147,0.147-0.189,0.294-0.224,0.406h-0.638l0.126-2.886h2.724v0.567h-2.122l-0.091,1.568
			c0.147-0.146,0.455-0.448,1.022-0.448c0.974,0,1.45,0.764,1.45,1.598c0,0.952-0.672,1.674-1.73,1.674
			c-0.784,0-1.408-0.435-1.443-1.261H42.574z"/>
	</g>
	<rect x="152.267" y="344.443" fill="none" width="8.467" height="10.529"/>
	<g enable-background="new    ">
		<path d="M152.638,348.853l1.268-1.246c0.267-0.26,0.533-0.539,0.75-0.834c0.28-0.385,0.357-0.602,0.357-0.861
			c0-0.238-0.084-0.791-0.777-0.791c-0.778,0-0.792,0.665-0.792,0.848h-0.735c0.007-0.238,0.028-0.701,0.448-1.065
			c0.336-0.287,0.742-0.35,1.05-0.35c0.743,0,1.499,0.378,1.499,1.415c0,0.308-0.021,0.546-0.546,1.211
			c-0.14,0.176-0.756,0.812-0.896,0.953l-0.848,0.805h2.304v0.554h-3.082V348.853z"/>
		<path d="M158.092,344.546c1.45,0,1.625,1.555,1.625,2.465c0,1.148-0.231,1.793-0.672,2.206c-0.343,0.322-0.75,0.371-0.967,0.371
			c-0.644,0-1.085-0.378-1.295-0.805c-0.161-0.322-0.315-0.792-0.315-1.66C156.467,346.401,156.551,344.546,158.092,344.546z
			 M158.085,349.007c0.812,0,0.952-1.064,0.952-1.933c0-1.163-0.203-1.969-0.938-1.969c-0.847,0-0.959,1.114-0.959,1.982
			C157.139,348.167,157.349,349.007,158.085,349.007z"/>
	</g>
	<rect x="268.496" y="344.443" fill="none" width="8.009" height="10.529"/>
	<g enable-background="new    ">
		<path d="M268.867,348.853l1.268-1.246c0.267-0.26,0.533-0.539,0.75-0.834c0.28-0.385,0.357-0.602,0.357-0.861
			c0-0.238-0.084-0.791-0.777-0.791c-0.778,0-0.792,0.665-0.792,0.848h-0.735c0.007-0.238,0.028-0.701,0.448-1.065
			c0.336-0.287,0.742-0.35,1.05-0.35c0.743,0,1.499,0.378,1.499,1.415c0,0.308-0.021,0.546-0.546,1.211
			c-0.14,0.176-0.756,0.812-0.896,0.953l-0.848,0.805h2.304v0.554h-3.082V348.853z"/>
		<path d="M273.508,348.342c0.014,0.49,0.441,0.687,0.806,0.687c0.847,0,0.959-0.799,0.959-1.114c0-0.658-0.357-1.043-0.917-1.043
			c-0.28,0-0.504,0.104-0.651,0.252c-0.147,0.147-0.189,0.294-0.224,0.406h-0.638l0.126-2.886h2.724v0.567h-2.122l-0.091,1.568
			c0.147-0.146,0.455-0.448,1.022-0.448c0.974,0,1.45,0.764,1.45,1.598c0,0.952-0.672,1.674-1.73,1.674
			c-0.784,0-1.408-0.435-1.443-1.261H273.508z"/>
	</g>
	<rect x="383.267" y="344.443" fill="none" width="8.468" height="10.529"/>
	<g enable-background="new    ">
		<path d="M384.275,348.243c-0.007,0.463,0.294,0.792,0.889,0.792c0.679,0,0.967-0.435,0.967-0.861c0-0.512-0.343-0.777-0.701-0.854
			c-0.252-0.049-0.427-0.042-0.672-0.035v-0.567c0.483,0.042,1.296-0.056,1.296-0.841c0-0.546-0.371-0.763-0.854-0.763
			c-0.364,0-0.819,0.161-0.882,0.763h-0.708c0.042-1.204,1.177-1.323,1.569-1.323c1.058,0,1.583,0.637,1.583,1.31
			c0,0.399-0.217,0.974-0.967,1.142c1.037,0.147,1.037,1.078,1.037,1.177c0,0.68-0.553,1.429-1.681,1.429
			c-0.511,0-1.022-0.147-1.331-0.504c-0.273-0.309-0.28-0.659-0.287-0.862H384.275z"/>
		<path d="M389.092,344.546c1.449,0,1.625,1.555,1.625,2.465c0,1.148-0.231,1.793-0.672,2.206c-0.343,0.322-0.75,0.371-0.967,0.371
			c-0.644,0-1.085-0.378-1.295-0.805c-0.161-0.322-0.315-0.792-0.315-1.66C387.467,346.401,387.551,344.546,389.092,344.546z
			 M389.085,349.007c0.812,0,0.952-1.064,0.952-1.933c0-1.163-0.203-1.969-0.938-1.969c-0.847,0-0.959,1.114-0.959,1.982
			C388.139,348.167,388.349,349.007,389.085,349.007z"/>
	</g>
	<rect x="499.381" y="344.443" fill="none" width="8.238" height="10.529"/>
	<g enable-background="new    ">
		<path d="M500.391,348.243c-0.008,0.463,0.293,0.792,0.889,0.792c0.68,0,0.967-0.435,0.967-0.861c0-0.512-0.344-0.777-0.701-0.854
			c-0.252-0.049-0.427-0.042-0.672-0.035v-0.567c0.483,0.042,1.296-0.056,1.296-0.841c0-0.546-0.371-0.763-0.854-0.763
			c-0.364,0-0.819,0.161-0.883,0.763h-0.707c0.042-1.204,1.177-1.323,1.568-1.323c1.059,0,1.584,0.637,1.584,1.31
			c0,0.399-0.218,0.974-0.967,1.142c1.036,0.147,1.036,1.078,1.036,1.177c0,0.68-0.554,1.429-1.681,1.429
			c-0.512,0-1.023-0.147-1.331-0.504c-0.272-0.309-0.28-0.659-0.287-0.862H500.391z"/>
		<path d="M504.395,348.342c0.014,0.49,0.441,0.687,0.805,0.687c0.848,0,0.96-0.799,0.96-1.114c0-0.658-0.357-1.043-0.917-1.043
			c-0.281,0-0.505,0.104-0.652,0.252c-0.146,0.147-0.189,0.294-0.224,0.406h-0.638l0.127-2.886h2.724v0.567h-2.122l-0.091,1.568
			c0.147-0.146,0.455-0.448,1.022-0.448c0.974,0,1.449,0.764,1.449,1.598c0,0.952-0.672,1.674-1.729,1.674
			c-0.784,0-1.407-0.435-1.442-1.261H504.395z"/>
	</g>
</g>
<g>
	<polyline fill="none" stroke="#8D8D8E" stroke-width="1.0765" stroke-miterlimit="10" points="13.474,78.807 21.566,78.807 
		779.924,78.807 	"/>
	<polyline fill="none" stroke="#8D8D8E" stroke-width="1.0765" stroke-miterlimit="10" points="13.474,54.048 21.566,54.048 
		779.924,54.048 	"/>
	<polyline fill="none" stroke="#8D8D8E" stroke-width="1.0765" stroke-miterlimit="10" points="13.474,28.212 21.566,28.212 
		779.924,28.212 	"/>
	<polyline fill="none" stroke="#8D8D8E" stroke-width="1.0765" stroke-miterlimit="10" points="13.474,3.453 21.566,3.453 
		779.924,3.453 	"/>
	<polyline fill="none" stroke="#414042" stroke-width="1.0765" stroke-miterlimit="10" points="781,97.106 22.625,97.106 
		22.625,3.453 12.398,3.453 	"/>
	
		<line fill="none" stroke="#414042" stroke-width="1.0765" stroke-miterlimit="10" x1="22.086" y1="28.212" x2="13.474" y2="28.212"/>
	
		<line fill="none" stroke="#414042" stroke-width="1.0765" stroke-miterlimit="10" x1="22.086" y1="54.048" x2="13.474" y2="54.048"/>
	
		<line fill="none" stroke="#414042" stroke-width="1.0765" stroke-miterlimit="10" x1="22.086" y1="78.807" x2="13.474" y2="78.807"/>
	<rect y="92.089" fill="none" width="14.275" height="21.536"/>
	<g enable-background="new    ">
		<path fill="#414042" d="M1.946,95.759c-0.015,0.784,0.309,1.364,1.085,1.364c0.46,0,0.829-0.242,0.89-0.783H4.63
			c-0.022,0.188-0.052,0.497-0.324,0.791c-0.165,0.188-0.542,0.506-1.304,0.506c-1.191,0-1.756-0.739-1.756-1.938
			c0-0.746,0.15-1.365,0.746-1.779c0.362-0.256,0.814-0.279,1.033-0.279c1.696,0,1.659,1.501,1.644,2.119H1.946z M3.944,95.261
			c0.008-0.361-0.06-1.116-0.935-1.116c-0.46,0-1.018,0.279-1.033,1.116H3.944z"/>
		<path fill="#414042" d="M5.721,92.087H6.43v5.436H5.721V92.087z"/>
		<path fill="#414042" d="M8.23,95.759c-0.015,0.784,0.309,1.364,1.085,1.364c0.46,0,0.83-0.242,0.89-0.783h0.708
			c-0.022,0.188-0.052,0.497-0.324,0.791c-0.166,0.188-0.542,0.506-1.304,0.506c-1.191,0-1.757-0.739-1.757-1.938
			c0-0.746,0.151-1.365,0.747-1.779c0.361-0.256,0.814-0.279,1.033-0.279c1.696,0,1.659,1.501,1.644,2.119H8.23z M10.229,95.261
			c0.007-0.361-0.061-1.116-0.935-1.116c-0.46,0-1.018,0.279-1.033,1.116H10.229z"/>
		<path fill="#414042" d="M11.938,96.618h0.837v0.904h-0.837V96.618z"/>
	</g>
	<g enable-background="new    ">
		<path fill="#414042" d="M3.566,107.492c-0.407-1.002-0.897-2.253-0.897-3.354c0-0.596,0.136-1.185,0.309-1.757
			c0.211-0.68,0.407-1.161,0.536-1.485h0.497c-0.12,0.368-0.286,0.882-0.445,1.598c-0.158,0.694-0.211,1.162-0.211,1.629
			c0,1.07,0.264,1.937,0.701,3.369H3.566z"/>
		<path fill="#414042" d="M7.184,101.649c-0.121-0.007-0.271-0.014-0.415-0.014c-0.573,0-0.573,0.285-0.573,0.55v0.596h0.882v0.513
			H6.196v3.272H5.495v-3.272H4.749v-0.513h0.747v-0.43c0-0.521,0.03-0.709,0.158-0.905c0.158-0.241,0.46-0.414,0.95-0.414
			c0.204,0,0.43,0.03,0.581,0.053V101.649z"/>
		<path fill="#414042" d="M7.031,102.766h0.671v-0.792l0.701-0.226v1.018h0.845v0.52H8.403v2.27c0,0.188,0,0.505,0.505,0.505
			c0.144,0,0.279-0.021,0.339-0.036v0.55c-0.128,0.023-0.332,0.045-0.588,0.045c-0.649,0-0.958-0.188-0.958-0.806v-2.527H7.031
			V102.766z"/>
		<path fill="#414042" d="M10.521,100.896c0.408,1.002,0.897,2.246,0.897,3.347c0,0.596-0.136,1.185-0.309,1.757
			c-0.211,0.68-0.407,1.17-0.535,1.492h-0.498c0.121-0.375,0.287-0.889,0.444-1.604c0.159-0.688,0.211-1.162,0.211-1.629
			c0-1.063-0.264-1.931-0.701-3.362H10.521z"/>
	</g>
	<g>
		<rect y="-0.317" fill="none" width="14.275" height="6.42"/>
		<g enable-background="new    ">
			<path fill="#414042" d="M5.723,3.984H3.37V3.087l2.262-3.257h0.814v3.543h0.761v0.611H6.446v1.131H5.723V3.984z M5.745,3.374
				V0.622L3.943,3.374H5.745z"/>
			<path fill="#414042" d="M7.959-0.366h0.701v3.242l1.417-1.546h0.928L9.407,2.936l1.696,2.179h-0.927L8.661,3.072v2.043H7.959
				V-0.366z"/>
		</g>
	</g>
	<g>
		<rect y="24.246" fill="none" width="14.275" height="6.421"/>
		<g enable-background="new    ">
			<path fill="#414042" d="M4.245,28.337c-0.007,0.499,0.316,0.853,0.957,0.853c0.731,0,1.041-0.468,1.041-0.927
				c0-0.551-0.369-0.837-0.754-0.92c-0.271-0.053-0.459-0.045-0.724-0.038v-0.61c0.52,0.045,1.395-0.06,1.395-0.905
				c0-0.588-0.4-0.821-0.92-0.821c-0.392,0-0.882,0.173-0.95,0.821H3.528c0.045-1.296,1.267-1.424,1.688-1.424
				c1.139,0,1.704,0.685,1.704,1.41c0,0.43-0.234,1.048-1.041,1.229c1.116,0.159,1.116,1.161,1.116,1.267
				c0,0.732-0.596,1.538-1.81,1.538c-0.55,0-1.1-0.159-1.432-0.542c-0.294-0.332-0.302-0.71-0.309-0.928H4.245z"/>
			<path fill="#414042" d="M7.959,24.199h0.701v3.242l1.417-1.545h0.928L9.407,27.5l1.696,2.18h-0.927l-1.515-2.044v2.044H7.959
				V24.199z"/>
		</g>
	</g>
	<g>
		<rect y="50.525" fill="none" width="14.275" height="6.419"/>
		<g enable-background="new    ">
			<path fill="#414042" d="M3.559,55.272l1.364-1.342c0.287-0.279,0.573-0.58,0.807-0.897c0.302-0.414,0.385-0.647,0.385-0.927
				c0-0.256-0.09-0.852-0.836-0.852c-0.837,0-0.853,0.716-0.853,0.913H3.634c0.008-0.257,0.03-0.755,0.483-1.147
				c0.361-0.309,0.798-0.376,1.13-0.376c0.799,0,1.614,0.407,1.614,1.523c0,0.331-0.023,0.587-0.588,1.304
				c-0.15,0.189-0.814,0.875-0.965,1.026l-0.913,0.866h2.48v0.596H3.559V55.272z"/>
			<path fill="#414042" d="M7.959,50.478h0.701v3.242l1.417-1.545h0.928l-1.598,1.605l1.696,2.179h-0.927l-1.515-2.043v2.043H7.959
				V50.478z"/>
		</g>
	</g>
	<g>
		<rect y="75.176" fill="none" width="14.275" height="6.42"/>
		<g enable-background="new    ">
			<path fill="#414042" d="M5.202,76.213c-0.324,0.271-0.844,0.58-1.213,0.755v-0.755c0.49-0.256,0.973-0.572,1.267-0.821h0.67
				v5.217H5.202V76.213z"/>
			<path fill="#414042" d="M7.959,75.127h0.701v3.242l1.417-1.546h0.928l-1.598,1.605l1.696,2.18h-0.927l-1.515-2.044v2.044H7.959
				V75.127z"/>
		</g>
	</g>
	<path fill="none" stroke="#414042" stroke-width="1.0765" stroke-miterlimit="10" d="M22.104,3.453"/>
</g>
<g>
	<polyline fill="none" stroke="#8D8D8E" stroke-miterlimit="10" points="40,255.5 47.517,255.5 752,255.5 	"/>
	<polyline fill="none" stroke="#8D8D8E" stroke-miterlimit="10" points="40,232.5 47.517,232.5 752,232.5 	"/>
	<polyline fill="none" stroke="#8D8D8E" stroke-miterlimit="10" points="40,208.5 47.517,208.5 752,208.5 	"/>
	<polyline fill="none" stroke="#8D8D8E" stroke-miterlimit="10" points="40,185.5 47.517,185.5 752,185.5 	"/>
	<polyline fill="none" stroke="#414042" stroke-miterlimit="10" points="753,272.5 48.5,272.5 48.5,185.5 39,185.5 	"/>
	<line fill="none" stroke="#414042" stroke-miterlimit="10" x1="48" y1="208.5" x2="40" y2="208.5"/>
	<line fill="none" stroke="#414042" stroke-miterlimit="10" x1="48" y1="232.5" x2="40" y2="232.5"/>
	<line fill="none" stroke="#414042" stroke-miterlimit="10" x1="48" y1="255.5" x2="40" y2="255.5"/>
	<rect x="27.483" y="267.839" fill="none" width="13.261" height="20.006"/>
	<g enable-background="new    ">
		<path fill="#414042" d="M29.291,271.248c-0.014,0.729,0.287,1.268,1.008,1.268c0.427,0,0.771-0.225,0.827-0.729h0.658
			c-0.021,0.175-0.049,0.462-0.301,0.735c-0.154,0.175-0.504,0.47-1.211,0.47c-1.106,0-1.632-0.687-1.632-1.801
			c0-0.693,0.14-1.268,0.693-1.652c0.336-0.238,0.756-0.26,0.959-0.26c1.576,0,1.541,1.395,1.527,1.969H29.291z M31.147,270.785
			c0.007-0.336-0.056-1.036-0.869-1.036c-0.427,0-0.945,0.259-0.959,1.036H31.147z"/>
		<path fill="#414042" d="M32.798,267.837h0.658v5.05h-0.658V267.837z"/>
		<path fill="#414042" d="M35.129,271.248c-0.014,0.729,0.287,1.268,1.008,1.268c0.427,0,0.771-0.225,0.827-0.729h0.658
			c-0.021,0.175-0.049,0.462-0.301,0.735c-0.154,0.175-0.504,0.47-1.211,0.47c-1.106,0-1.632-0.687-1.632-1.801
			c0-0.693,0.14-1.268,0.693-1.652c0.336-0.238,0.756-0.26,0.959-0.26c1.576,0,1.541,1.395,1.527,1.969H35.129z M36.985,270.785
			c0.007-0.336-0.056-1.036-0.869-1.036c-0.427,0-0.945,0.259-0.959,1.036H36.985z"/>
		<path fill="#414042" d="M38.573,272.046h0.777v0.841h-0.777V272.046z"/>
	</g>
	<g enable-background="new    ">
		<path fill="#414042" d="M30.796,282.148c-0.378-0.932-0.833-2.094-0.833-3.116c0-0.554,0.126-1.1,0.287-1.632
			c0.196-0.631,0.378-1.079,0.498-1.38h0.462c-0.112,0.343-0.266,0.819-0.413,1.484c-0.147,0.645-0.196,1.079-0.196,1.513
			c0,0.995,0.245,1.8,0.651,3.131H30.796z"/>
		<path fill="#414042" d="M34.157,276.721c-0.112-0.007-0.252-0.014-0.385-0.014c-0.532,0-0.532,0.266-0.532,0.511v0.554h0.819
			v0.476h-0.819v3.04h-0.651v-3.04h-0.693v-0.476h0.693v-0.399c0-0.483,0.028-0.658,0.147-0.841
			c0.147-0.224,0.427-0.385,0.882-0.385c0.189,0,0.399,0.028,0.54,0.049V276.721z"/>
		<path fill="#414042" d="M34.015,277.757h0.623v-0.735l0.651-0.21v0.945h0.785v0.483H35.29v2.108c0,0.175,0,0.469,0.469,0.469
			c0.133,0,0.259-0.021,0.315-0.034v0.511c-0.119,0.021-0.308,0.042-0.546,0.042c-0.603,0-0.89-0.175-0.89-0.749v-2.347h-0.623
			V277.757z"/>
		<path fill="#414042" d="M37.256,276.021c0.378,0.932,0.833,2.087,0.833,3.109c0,0.554-0.126,1.1-0.287,1.632
			c-0.196,0.631-0.378,1.086-0.497,1.387h-0.462c0.112-0.35,0.266-0.826,0.413-1.491c0.147-0.638,0.196-1.079,0.196-1.514
			c0-0.987-0.245-1.793-0.651-3.123H37.256z"/>
	</g>
	<g>
		<rect x="27.483" y="181.997" fill="none" width="13.261" height="5.964"/>
		<g enable-background="new    ">
			<path fill="#414042" d="M32.799,185.994h-2.185v-0.833l2.101-3.025h0.756v3.291h0.708v0.567h-0.708v1.051h-0.672V185.994z
				 M32.82,185.427v-2.556l-1.674,2.556H32.82z"/>
			<path fill="#414042" d="M34.877,181.953h0.651v3.012l1.316-1.436h0.862l-1.485,1.491l1.576,2.024h-0.861l-1.408-1.898v1.898
				h-0.651V181.953z"/>
		</g>
	</g>
	<g>
		<rect x="27.483" y="204.816" fill="none" width="13.261" height="5.964"/>
		<g enable-background="new    ">
			<path fill="#414042" d="M31.426,208.616c-0.007,0.463,0.294,0.792,0.889,0.792c0.679,0,0.967-0.435,0.967-0.861
				c0-0.512-0.343-0.777-0.701-0.854c-0.252-0.049-0.427-0.042-0.672-0.035v-0.567c0.483,0.042,1.296-0.056,1.296-0.841
				c0-0.546-0.371-0.763-0.854-0.763c-0.364,0-0.819,0.161-0.882,0.763h-0.708c0.042-1.204,1.177-1.323,1.569-1.323
				c1.058,0,1.583,0.637,1.583,1.31c0,0.399-0.217,0.974-0.967,1.142c1.037,0.147,1.037,1.078,1.037,1.177
				c0,0.68-0.553,1.429-1.681,1.429c-0.511,0-1.022-0.147-1.331-0.504c-0.273-0.309-0.28-0.659-0.287-0.862H31.426z"/>
			<path fill="#414042" d="M34.877,204.771h0.651v3.012l1.316-1.436h0.862l-1.485,1.491l1.576,2.024h-0.861l-1.408-1.898v1.898
				h-0.651V204.771z"/>
		</g>
	</g>
	<g>
		<rect x="27.483" y="229.229" fill="none" width="13.261" height="5.963"/>
		<g enable-background="new    ">
			<path fill="#414042" d="M30.789,233.638l1.268-1.246c0.267-0.26,0.533-0.539,0.75-0.834c0.28-0.385,0.357-0.602,0.357-0.861
				c0-0.238-0.084-0.791-0.777-0.791c-0.778,0-0.792,0.665-0.792,0.848h-0.735c0.007-0.238,0.028-0.701,0.448-1.065
				c0.336-0.287,0.742-0.35,1.05-0.35c0.743,0,1.499,0.378,1.499,1.415c0,0.308-0.021,0.546-0.546,1.211
				c-0.14,0.176-0.756,0.812-0.896,0.953l-0.848,0.805h2.304v0.554h-3.082V233.638z"/>
			<path fill="#414042" d="M34.877,229.184h0.651v3.012l1.316-1.436h0.862l-1.485,1.491l1.576,2.024h-0.861l-1.408-1.898v1.898
				h-0.651V229.184z"/>
		</g>
	</g>
	<g>
		<rect x="27.483" y="252.127" fill="none" width="13.261" height="5.964"/>
		<g enable-background="new    ">
			<path fill="#414042" d="M32.315,253.091c-0.301,0.252-0.784,0.539-1.127,0.7v-0.7c0.455-0.238,0.903-0.532,1.177-0.764h0.623
				v4.847h-0.672V253.091z"/>
			<path fill="#414042" d="M34.877,252.082h0.651v3.012l1.316-1.436h0.862l-1.485,1.491l1.576,2.024h-0.861l-1.408-1.898v1.898
				h-0.651V252.082z"/>
		</g>
	</g>
	<path fill="none" stroke="#414042" stroke-miterlimit="10" d="M48.017,185.5"/>
</g>
<polyline fill="#F8B290" stroke="#F26522" stroke-width="1.0765" stroke-miterlimit="10" points="22.477,97.027 43.033,85.734 
	57.151,87.499 82.14,73.653 111.366,43.888 128.621,64.559 146.269,24.851 167.446,49.557 178.915,36.321 208.034,23.337 
	227.446,87.499 239.798,73.38 257.445,18.674 281.27,68.086 309.504,34.557 319.21,62.792 332.447,48.674 354.504,87.499 
	364.211,83.968 401.27,42.498 425.977,36.321 467.445,13.38 483.329,18.674 497.445,52.204 552.152,46.027 589.211,38.085 
	604.212,8.085 625.388,9.85 643.917,32.792 660.681,44.263 675.683,54.851 706.566,13.38 726.859,97.408 "/>
<image overflow="visible" enable-background="new    " width="1354" height="386" xlink:href="4C331E87B0E044FA.png"  transform="matrix(0.5182 0 0 0.5163 15.0166 164.6826)">
</image>
</svg>
