<?xml version="1.0" encoding="utf-8"?>
<!-- Generator: Adobe Illustrator 16.0.0, SVG Export Plug-In . SVG Version: 6.00 Build 0)  -->
<!DOCTYPE svg PUBLIC "-//W3C//DTD SVG 1.1//EN" "http://www.w3.org/Graphics/SVG/1.1/DTD/svg11.dtd">
<svg version="1.1" id="Layer_1" xmlns="http://www.w3.org/2000/svg" xmlns:xlink="http://www.w3.org/1999/xlink" x="0px" y="0px"
	 width="100px" height="95.877px" viewBox="154 156.062 100 95.877" enable-background="new 154 156.062 100 95.877"
	 xml:space="preserve">
<g>
	<path fill="#414042" d="M249.877,186.977c1.131,1.649,2.523,3.104,4.123,4.305c-1.6,1.201-2.992,2.655-4.123,4.305
		c-1.131-1.649-2.523-3.104-4.123-4.305C247.354,190.08,248.746,188.626,249.877,186.977z"/>
	<path fill="#414042" d="M234.224,177.976c-1.131-1.649-2.523-3.104-4.122-4.305c1.599-1.201,2.991-2.655,4.122-4.305
		c1.131,1.649,2.522,3.104,4.123,4.305C236.746,174.872,235.354,176.326,234.224,177.976z"/>
	<path fill="#414042" d="M167.696,183.889v5.436c0,1.081,0.876,1.957,1.957,1.957c1.081,0,1.957-0.876,1.957-1.957v-5.436
		c0-0.555,0.234-1.082,0.646-1.453c0.833-0.732,1.309-1.787,1.311-2.895c0-2.162-1.752-3.913-3.913-3.913
		c-2.162,0-3.914,1.751-3.914,3.913c0.001,1.107,0.479,2.162,1.311,2.895C167.462,182.807,167.696,183.334,167.696,183.889z"/>
	<path fill="#414042" d="M183.351,163.888h1.956v-5.87c0-1.081-0.876-1.956-1.956-1.956h-27.394c-1.081,0-1.957,0.875-1.957,1.956
		v5.87H183.351z"/>
	<path fill="#414042" d="M185.307,203.021h48.917c0-2.162-1.753-3.913-3.914-3.913h-45.003V203.021z"/>
	<path fill="#414042" d="M181.394,203.021v-35.22h-23.48v35.22H181.394z M169.653,171.714c3.072-0.008,5.864,1.788,7.131,4.588
		c1.267,2.801,0.774,6.082-1.261,8.386v4.637c0,3.242-2.629,5.87-5.87,5.87c-3.242,0-5.871-2.628-5.871-5.87v-4.637
		c-2.034-2.304-2.527-5.585-1.26-8.386C163.789,173.502,166.581,171.706,169.653,171.714z"/>
	<path fill="#414042" d="M236.181,206.936h-80.224c-1.081,0-1.957,0.875-1.957,1.957c0,1.079,0.876,1.956,1.957,1.956h7.826
		c1.082,0,1.957,0.875,1.957,1.956c0,1.08-0.875,1.957-1.957,1.957h-5.349l5.135,21.565c0.07-0.018,0.142-0.032,0.214-0.043h12.749
		c3.634-0.009,7.123,1.436,9.686,4.014l11.64,11.641h17.33l5.229-16.347c0.177-0.556,0.594-1.002,1.133-1.219
		c10.038-3.986,16.618-13.705,16.59-24.503v-2.935H236.181z M173.566,214.762h-1.957c-1.081,0-1.957-0.877-1.957-1.957
		c0-1.081,0.876-1.956,1.957-1.956h1.957c1.081,0,1.957,0.875,1.957,1.956C175.523,213.885,174.647,214.762,173.566,214.762z
		 M208.787,238.241c-0.065,0-0.129,0-0.196-0.011l-3.81-0.38c-10.35-1.046-19.125-8.061-22.423-17.925l-0.864-2.592
		c-0.341-1.027,0.213-2.136,1.241-2.476c1.026-0.344,2.136,0.213,2.478,1.238l0.864,2.59c2.812,8.399,10.288,14.373,19.101,15.261
		l3.812,0.381c1.081,0.056,1.911,0.978,1.855,2.058C210.789,237.467,209.868,238.298,208.787,238.241z"/>
	<path fill="#414042" d="M176.531,240.198h-12.042l2.796,11.74h25.045l-8.873-8.874C181.625,241.222,179.13,240.19,176.531,240.198z
		"/>
</g>
</svg>
