<?xml version="1.0" encoding="utf-8"?>
<!-- Generator: Adobe Illustrator 16.0.0, SVG Export Plug-In . SVG Version: 6.00 Build 0)  -->
<!DOCTYPE svg PUBLIC "-//W3C//DTD SVG 1.1//EN" "http://www.w3.org/Graphics/SVG/1.1/DTD/svg11.dtd">
<svg version="1.1" id="Layer_1" xmlns="http://www.w3.org/2000/svg" xmlns:xlink="http://www.w3.org/1999/xlink" x="0px" y="0px"
	 width="770.922px" height="206.547px" viewBox="0 0 770.922 206.547" enable-background="new 0 0 770.922 206.547"
	 xml:space="preserve">
<g>
	<g>
		<path fill="#414042" d="M181.532,39.482c2.914-0.333,6.515-0.626,10.805-0.874c4.288-0.248,9.264-0.378,14.929-0.378
			c10.744,0,18.968,2.001,24.674,6.002c5.703,3.993,8.556,9.491,8.556,16.486c0,4.668-1.208,8.58-3.622,11.744
			c-2.417,3.164-5.998,5.791-10.744,7.873c5.663,1.996,9.951,4.741,12.867,8.242c2.914,3.498,4.372,7.869,4.372,13.115
			c0,7.995-3.103,14.326-9.307,18.991c-6.206,4.664-15.302,6.994-27.297,6.994c-5.079,0-9.89-0.105-14.428-0.309
			c-4.54-0.212-8.141-0.521-10.805-0.939V39.482z M207.142,76.96c6.578,0,11.805-1.35,15.679-4.058
			c3.871-2.709,5.807-6.271,5.807-10.684c0-4.745-1.915-8.324-5.746-10.744c-3.831-2.411-9.078-3.623-15.739-3.623
			c-2.749,0-5.248,0.065-7.497,0.188c-2.249,0.126-4.331,0.272-6.246,0.438V76.96H207.142z M207.642,117.813
			c7.495,0,13.304-1.334,17.425-4.002c4.124-2.663,6.185-6.535,6.185-11.614c0-5.002-2.041-8.914-6.122-11.744
			s-9.912-4.249-17.488-4.249h-14.243v30.856C197.729,117.562,202.475,117.813,207.642,117.813z"/>
		<path fill="#414042" d="M253.986,94.203c0-5.25,0.834-9.976,2.497-14.185c1.667-4.205,3.937-7.764,6.812-10.679
			c2.875-2.912,6.287-5.165,10.244-6.747c3.953-1.582,8.223-2.37,12.806-2.37c4.494,0,8.723,0.788,12.68,2.37
			c3.957,1.582,7.389,3.835,10.309,6.747c2.912,2.915,5.201,6.457,6.869,10.617c1.663,4.169,2.501,8.829,2.501,13.993
			c0,5.165-0.813,9.85-2.44,14.055c-1.623,4.205-3.896,7.808-6.808,10.805c-2.916,2.997-6.352,5.307-10.305,6.934
			c-3.961,1.627-8.227,2.436-12.806,2.436c-4.665,0-8.975-0.833-12.928-2.501c-3.961-1.659-7.373-3.993-10.248-6.994
			c-2.871-2.997-5.124-6.576-6.743-10.744C254.8,103.775,253.986,99.196,253.986,94.203z M307.206,94.203
			c0-3.254-0.521-6.332-1.562-9.248c-1.045-2.911-2.501-5.453-4.372-7.62c-1.875-2.164-4.083-3.893-6.62-5.186
			c-2.546-1.289-5.311-1.936-8.308-1.936c-6.584,0-11.704,2.168-15.368,6.494c-3.664,4.335-5.498,10.077-5.498,17.242
			c0,3.245,0.521,6.353,1.562,9.305c1.041,2.961,2.501,5.539,4.376,7.747c1.87,2.208,4.079,3.957,6.62,5.25
			c2.538,1.289,5.311,1.936,8.308,1.936c3.249,0,6.161-0.586,8.743-1.749c2.583-1.167,4.77-2.813,6.559-4.937
			c1.79-2.123,3.164-4.644,4.124-7.556C306.726,101.03,307.206,97.781,307.206,94.203z"/>
		<path fill="#414042" d="M391.778,127.305c-3.992,0-7.161-0.789-9.491-2.375c-2.334-1.578-3.961-3.871-4.872-6.868
			c-2.919,2.997-6.271,5.433-10.061,7.308c-3.79,1.87-7.93,2.81-12.427,2.81c-2.831,0-5.56-0.435-8.183-1.313
			c-2.627-0.87-4.957-2.265-6.994-4.18c-2.042-1.92-3.668-4.417-4.872-7.499c-1.212-3.079-1.813-6.828-1.813-11.24V61.719h11.244
			v40.727c0,5.079,1.061,8.976,3.184,11.68c2.123,2.708,5.312,4.062,9.557,4.062c3.497,0,6.832-0.691,9.996-2.065
			c3.163-1.375,5.994-3.226,8.495-5.556V61.719h11.245v48.1c0,1.83,0.203,3.311,0.621,4.433c0.42,1.122,0.955,2.001,1.623,2.623
			c0.666,0.622,1.455,1.062,2.375,1.313c0.918,0.248,1.83,0.374,2.748,0.374L391.778,127.305z"/>
		<path fill="#414042" d="M420.008,72.585c2.334-3.497,5.312-6.434,8.936-8.805c3.623-2.37,7.934-3.558,12.928-3.558
			c7.328,0,12.809,2.204,16.428,6.62c3.629,4.416,5.434,10.239,5.434,17.486v42.35h-11.24V85.581c0-4.749-1.082-8.515-3.25-11.305
			c-2.166-2.79-5.244-4.188-9.242-4.188c-1.92,0-3.791,0.357-5.621,1.065c-1.834,0.708-3.602,1.684-5.311,2.936
			c-1.707,1.245-3.293,2.705-4.75,4.368c-1.455,1.667-2.764,3.416-3.932,5.25v42.972h-11.244v-64.96h10.865V72.585z"/>
		<path fill="#414042" d="M507.709,128.179c-3.998,0-7.768-0.793-11.307-2.37c-3.541-1.586-6.619-3.831-9.246-6.751
			c-2.619-2.911-4.686-6.434-6.182-10.557c-1.5-4.119-2.248-8.76-2.248-13.924c0-4.913,0.768-9.476,2.309-13.681
			c1.541-4.204,3.623-7.828,6.246-10.87c2.623-3.037,5.686-5.437,9.184-7.186c3.5-1.748,7.201-2.618,11.117-2.618
			c4.332,0,8.057,0.87,11.18,2.618c3.123,1.749,5.562,3.547,7.311,5.376V34.237h11.24v76.703c0,3.164,0.773,5.226,2.314,6.182
			c1.541,0.96,3.225,1.439,5.059,1.439l-2.371,8.743c-7.912,0-12.744-3.164-14.492-9.491c-1.92,2.663-4.498,5.059-7.748,7.182
			C516.827,127.117,512.704,128.179,507.709,128.179z M510.206,118.188c3.082,0,6.02-0.732,8.809-2.188
			c2.789-1.456,5.141-3.352,7.059-5.686V78.083c-1.586-1.997-3.77-3.848-6.559-5.556c-2.793-1.708-5.934-2.562-9.43-2.562
			c-3.002,0-5.727,0.622-8.184,1.871c-2.459,1.252-4.562,2.96-6.311,5.123c-1.748,2.164-3.082,4.726-3.998,7.683
			c-0.914,2.956-1.373,6.145-1.373,9.561c0,3.497,0.5,6.701,1.5,9.613c1,2.92,2.391,5.437,4.184,7.563
			c1.791,2.123,3.916,3.79,6.373,4.994C504.733,117.581,507.375,118.188,510.206,118.188z"/>
		<path fill="#414042" d="M570.293,105.19c0,4.498,0.936,7.832,2.814,9.996c1.871,2.167,4.473,3.249,7.809,3.249
			c1.576,0,3.123-0.188,4.619-0.565c1.5-0.374,2.83-0.81,3.996-1.31l2.75,9.117c-1.5,0.671-3.355,1.253-5.559,1.753
			c-2.209,0.5-4.645,0.748-7.309,0.748c-2.916,0-5.6-0.419-8.055-1.248c-2.461-0.83-4.604-2.123-6.434-3.871
			c-1.838-1.749-3.27-4.002-4.311-6.751c-1.045-2.745-1.562-6.075-1.562-9.991v-72.08h11.24V105.19z"/>
		<path fill="#414042" d="M608.145,98.822c0.748,6.08,2.871,10.825,6.373,14.241c3.496,3.416,8.121,5.124,13.867,5.124
			c3.744,0,7.121-0.398,10.117-1.188c2.998-0.789,5.873-1.813,8.621-3.062l2.623,9.618c-3.002,1.419-6.373,2.545-10.117,3.375
			c-3.75,0.829-7.955,1.248-12.619,1.248s-8.869-0.769-12.619-2.31c-3.748-1.541-6.934-3.749-9.557-6.624
			c-2.623-2.871-4.643-6.409-6.059-10.614s-2.123-9.016-2.123-14.428c0-4.832,0.707-9.329,2.123-13.493s3.416-7.768,5.994-10.81
			c2.586-3.037,5.664-5.412,9.248-7.12c3.578-1.704,7.58-2.558,11.992-2.558c4.664,0,8.746,0.788,12.244,2.37
			s6.408,3.746,8.742,6.495c2.332,2.749,4.084,5.957,5.246,9.621c1.168,3.668,1.75,7.539,1.75,11.618
			c0,2.916-0.123,5.746-0.375,8.495H608.145z M625.762,69.966c-4.916,0-8.936,1.667-12.059,4.994
			c-3.123,3.334-5.018,8.247-5.68,14.745h35.598c0-6.332-1.576-11.203-4.74-14.619C635.709,71.674,631.34,69.966,625.762,69.966z"/>
		<path fill="#414042" d="M668.112,112.063c2.162,1.919,4.887,3.456,8.182,4.623c3.285,1.167,6.807,1.749,10.557,1.749
			c4.66,0,8.182-0.769,10.557-2.313c2.371-1.538,3.559-3.514,3.559-5.93c0-1.252-0.232-2.415-0.688-3.497
			c-0.459-1.082-1.293-2.127-2.496-3.123c-1.213-1.001-2.855-1.98-4.938-2.937c-2.082-0.959-4.791-2.021-8.117-3.188
			c-6.164-2.083-10.744-4.563-13.744-7.435c-2.998-2.87-4.498-6.848-4.498-11.931c0-2.497,0.561-4.827,1.688-6.995
			c1.127-2.163,2.748-4.059,4.871-5.685c2.123-1.623,4.705-2.892,7.748-3.807c3.037-0.919,6.514-1.374,10.43-1.374
			c4.246,0,7.975,0.435,11.18,1.309c3.205,0.875,6.1,1.977,8.682,3.311l-3.123,9.247c-2.248-1.333-4.811-2.415-7.682-3.253
			c-2.871-0.829-6.059-1.244-9.557-1.244c-4.33,0-7.621,0.87-9.869,2.619c-2.248,1.748-3.371,3.668-3.371,5.75
			c0,1,0.188,1.915,0.561,2.749c0.375,0.829,1.062,1.622,2.059,2.371c1,0.752,2.334,1.5,4,2.248c1.664,0.749,3.75,1.546,6.248,2.375
			c4.078,1.415,7.535,2.854,10.369,4.311c2.83,1.456,5.119,3.059,6.869,4.807c1.748,1.749,2.996,3.644,3.744,5.686
			c0.752,2.041,1.127,4.311,1.127,6.808c0,2.92-0.623,5.538-1.875,7.873c-1.248,2.334-2.996,4.311-5.246,5.933
			c-2.248,1.623-4.977,2.875-8.182,3.745c-3.205,0.879-6.768,1.313-10.68,1.313c-5.002,0-9.453-0.622-13.369-1.874
			c-3.912-1.249-7.162-2.871-9.744-4.872L668.112,112.063z"/>
		<path fill="#414042" d="M726.573,112.063c2.164,1.919,4.893,3.456,8.182,4.623s6.807,1.749,10.557,1.749
			c4.664,0,8.182-0.769,10.557-2.313c2.375-1.538,3.562-3.514,3.562-5.93c0-1.252-0.232-2.415-0.691-3.497
			c-0.455-1.082-1.293-2.127-2.496-3.123c-1.209-1.001-2.855-1.98-4.938-2.937c-2.082-0.959-4.791-2.021-8.117-3.188
			c-6.164-2.083-10.744-4.563-13.744-7.435c-2.994-2.87-4.498-6.848-4.498-11.931c0-2.497,0.564-4.827,1.691-6.995
			c1.123-2.163,2.75-4.059,4.873-5.685c2.121-1.623,4.699-2.892,7.742-3.807c3.041-0.919,6.514-1.374,10.434-1.374
			c4.246,0,7.971,0.435,11.176,1.309c3.209,0.875,6.1,1.977,8.686,3.311l-3.123,9.247c-2.248-1.333-4.811-2.415-7.686-3.253
			c-2.871-0.829-6.059-1.244-9.557-1.244c-4.326,0-7.621,0.87-9.865,2.619c-2.252,1.748-3.375,3.668-3.375,5.75
			c0,1,0.188,1.915,0.561,2.749c0.375,0.829,1.066,1.622,2.062,2.371c1,0.752,2.33,1.5,3.998,2.248
			c1.666,0.749,3.748,1.546,6.246,2.375c4.082,1.415,7.539,2.854,10.369,4.311s5.123,3.059,6.873,4.807
			c1.748,1.749,2.996,3.644,3.744,5.686c0.754,2.041,1.127,4.311,1.127,6.808c0,2.92-0.625,5.538-1.875,7.873
			c-1.248,2.334-2.996,4.311-5.25,5.933c-2.244,1.623-4.977,2.875-8.182,3.745c-3.205,0.879-6.766,1.313-10.678,1.313
			c-4.998,0-9.451-0.622-13.367-1.874c-3.916-1.249-7.162-2.871-9.748-4.872L726.573,112.063z"/>
	</g>
	<path fill="#F26522" d="M75.472,0C33.856,0,0,33.236,0,74.089c0,16.804,12.022,43.347,35.735,78.896
		c17.32,25.97,34.883,47.6,35.06,47.819l4.677,5.742l4.674-5.742c0.177-0.22,17.743-21.85,35.06-47.819
		c23.712-35.55,35.737-62.093,35.737-78.896C150.943,33.236,117.087,0,75.472,0z M74.737,186.579
		c-4.428-5.64-9.275-12.558-13.275-19.764v-39.836c4,0.199,6.439,0.305,11.389,0.305c11.806,0,21.386-2.298,27.495-6.885
		c6.104-4.595,9.478-10.821,9.478-18.689c0-5.165-1.286-9.472-4.155-12.912c-2.867-3.448-7.011-6.148-12.586-8.112
		c4.673-2.05,8.237-4.641,10.618-7.751c2.375-3.115,3.584-6.962,3.584-11.558c0-6.889-2.799-12.297-8.415-16.229
		c-5.612-3.937-13.706-5.9-24.281-5.9c-5.577,0-10.368,0.126-14.589,0.366c-4.225,0.243-6.538,0.536-10.538,0.861v76.871l0,0v33.785
		c-17-27.396-37.192-59.263-37.192-77.042c0-34.203,28.342-62.027,63.303-62.027c34.964,0,62.731,27.824,62.731,62.027
		C138.303,101.002,96.013,159.476,74.737,186.579z M74.965,87.273c7.458,0,13.196,0.993,17.211,3.771
		c4.02,2.79,6.029,6.434,6.029,11.362c0,5.002-2.029,8.711-6.091,11.328c-4.057,2.627-9.512,3.882-16.889,3.882
		c-5.083,0-13.764-0.291-13.764-0.787V87.273H74.965z M61.461,78.273V49.332c0-0.167,3.679-0.313,5.891-0.439
		c2.213-0.122,4.539-0.183,7.243-0.183c6.56,0,11.667,1.195,15.438,3.566c3.768,2.379,5.616,5.904,5.616,10.573
		c0,4.347-1.921,8.303-5.731,10.975c-3.811,2.655-8.971,4.449-15.447,4.449H61.461z"/>
</g>
</svg>
