<?xml version="1.0" encoding="utf-8"?>
<!-- Generator: Adobe Illustrator 16.0.0, SVG Export Plug-In . SVG Version: 6.00 Build 0)  -->
<!DOCTYPE svg PUBLIC "-//W3C//DTD SVG 1.1//EN" "http://www.w3.org/Graphics/SVG/1.1/DTD/svg11.dtd">
<svg version="1.1" id="Layer_1" xmlns="http://www.w3.org/2000/svg" xmlns:xlink="http://www.w3.org/1999/xlink" x="0px" y="0px"
	 width="22px" height="20px" viewBox="0 0 22 20" enable-background="new 0 0 22 20" xml:space="preserve">
<g id="KaUBrz_1_">
	<g>
		<g>
			<path fill-rule="evenodd" clip-rule="evenodd" fill="#EF4667" d="M9.814,17.429c-1.396-1.248-2.792-2.495-4.194-3.735
				c-0.881-0.778-1.806-1.62-2.572-2.6C2.142,9.934,1.647,8.622,1.536,7.08C1.482,6.333,1.461,5.535,1.675,4.756
				c0.534-1.948,2.32-3.324,4.344-3.347c0,0,0,0,0.001,0c1.734,0,3.093,0.726,4.221,2.218c0.056,0.074,0.108,0.151,0.16,0.229
				c0.111,0.162,0.279,0.407,0.592,0.407c0.282,0,0.444-0.195,0.541-0.312l0.298-0.366c0.264-0.329,0.514-0.64,0.797-0.902
				c0.9-0.833,2.043-1.292,3.219-1.292c0.765,0,1.509,0.187,2.211,0.555c1.351,0.708,2.158,1.872,2.401,3.46
				c0.016,0.103,0.032,0.208,0.036,0.312c0.006,0.12,0.004,0.239,0.003,0.357l-0.001,0.168c-0.013,1.423-0.242,2.547-0.721,3.533
				c-0.431,0.885-1.041,1.704-1.815,2.434c-0.741,0.698-1.501,1.375-2.262,2.053l-1.644,1.474l-3.055,2.753L9.814,17.429z"/>
			<path fill="#EF4667" d="M15.848,1.89L15.848,1.89c0.683,0,1.349,0.167,1.979,0.498c1.219,0.638,1.918,1.65,2.139,3.092
				c0.013,0.085,0.027,0.171,0.031,0.261C20.002,5.85,20,5.96,19.999,6.07l-0.001,0.165c-0.012,1.351-0.226,2.407-0.671,3.324
				c-0.403,0.83-0.979,1.6-1.708,2.289c-0.734,0.691-1.506,1.379-2.251,2.043c-0.329,0.293-0.659,0.587-0.986,0.882l-0.65,0.585
				c-0.908,0.817-1.815,1.634-2.731,2.461l-0.853-0.762c-1.396-1.248-2.792-2.496-4.196-3.736c-0.864-0.764-1.769-1.588-2.509-2.534
				C2.599,9.707,2.139,8.483,2.035,7.044c-0.051-0.703-0.071-1.45,0.122-2.156c0.476-1.734,2.066-2.959,3.868-2.979l0.059,0
				c1.523,0,2.717,0.642,3.757,2.018c0.051,0.068,0.098,0.139,0.146,0.209l0.042,0.061c0.258,0.375,0.583,0.566,0.965,0.566
				c0.517,0,0.813-0.357,0.924-0.49c0.104-0.123,0.204-0.249,0.305-0.375c0.252-0.314,0.49-0.611,0.747-0.849
				C13.776,2.301,14.799,1.89,15.848,1.89 M15.848,0.89c-1.284,0-2.546,0.487-3.559,1.426c-0.423,0.392-0.768,0.87-1.14,1.316
				c-0.072,0.086-0.115,0.131-0.156,0.131c-0.041,0-0.08-0.043-0.142-0.133c-0.069-0.102-0.138-0.206-0.212-0.304
				C9.493,1.808,8.029,0.908,6.083,0.908c-0.023,0-0.047,0-0.07,0C3.77,0.934,1.786,2.458,1.192,4.624
				C0.967,5.446,0.977,6.276,1.037,7.116c0.115,1.591,0.632,3.024,1.617,4.285c0.775,0.991,1.695,1.837,2.635,2.667
				c1.832,1.619,3.652,3.252,5.477,4.881c0.121,0.108,0.18,0.162,0.238,0.162s0.115-0.055,0.234-0.162
				c1.27-1.146,2.541-2.29,3.812-3.435c1.087-0.979,2.19-1.938,3.254-2.94c0.787-0.742,1.444-1.597,1.922-2.579
				c0.576-1.186,0.76-2.451,0.771-3.752c0-0.182,0.006-0.364-0.002-0.546c-0.005-0.123-0.023-0.246-0.042-0.368
				c-0.262-1.712-1.128-3.023-2.663-3.828C17.506,1.09,16.672,0.89,15.848,0.89L15.848,0.89z"/>
		</g>
	</g>
</g>
</svg>
