<?xml version="1.0" encoding="utf-8"?>
<!-- Generator: Adobe Illustrator 16.0.0, SVG Export Plug-In . SVG Version: 6.00 Build 0)  -->
<!DOCTYPE svg PUBLIC "-//W3C//DTD SVG 1.1//EN" "http://www.w3.org/Graphics/SVG/1.1/DTD/svg11.dtd">
<svg version="1.1" id="Layer_1" xmlns="http://www.w3.org/2000/svg" xmlns:xlink="http://www.w3.org/1999/xlink" x="0px" y="0px"
	 width="22px" height="20px" viewBox="0 0 22 20" enable-background="new 0 0 22 20" xml:space="preserve">
<path fill="none" d="M9.814,17.43c-1.396-1.248-2.792-2.496-4.194-3.736c-0.881-0.776-1.806-1.618-2.572-2.6
	C2.142,9.934,1.647,8.622,1.536,7.08C1.482,6.333,1.461,5.535,1.675,4.756c0.534-1.948,2.32-3.324,4.344-3.347c0,0,0,0,0.001,0
	c1.734,0,3.093,0.726,4.221,2.218c0.056,0.074,0.108,0.151,0.16,0.229c0.111,0.162,0.279,0.407,0.592,0.407
	c0.282,0,0.444-0.195,0.541-0.312l0.298-0.366c0.264-0.329,0.514-0.64,0.797-0.902c0.9-0.833,2.043-1.292,3.219-1.292
	c0.767,0,1.51,0.187,2.211,0.555c1.353,0.708,2.158,1.872,2.401,3.46c0.017,0.103,0.032,0.208,0.036,0.312
	c0.006,0.12,0.004,0.239,0.003,0.357l-0.001,0.168c-0.014,1.423-0.242,2.547-0.721,3.533c-0.432,0.885-1.041,1.705-1.815,2.434
	c-0.741,0.698-1.501,1.375-2.262,2.054l-1.644,1.473L11,18.491L9.814,17.43z"/>
<path fill="#769096" d="M21.495,5.677c-0.006-0.143-0.024-0.286-0.048-0.424c-0.293-1.919-1.277-3.331-2.926-4.195
	c-2.146-1.125-4.783-0.768-6.572,0.891c-0.338,0.312-0.621,0.666-0.895,1.007L11.019,3C9.711,1.28,8.05,0.408,6.007,0.408
	C3.54,0.437,1.361,2.116,0.709,4.492c-0.251,0.92-0.231,1.822-0.171,2.661c0.124,1.72,0.703,3.253,1.721,4.556
	c0.819,1.049,1.782,1.926,2.698,2.734C6.31,15.639,7.654,16.839,9,18.041l1.452,1.297c0.151,0.135,0.308,0.273,0.553,0.273
	c0.248,0,0.402-0.141,0.569-0.291l4.811-4.328c0.762-0.678,1.521-1.355,2.264-2.055c0.861-0.812,1.545-1.729,2.029-2.725
	c0.547-1.127,0.809-2.388,0.82-3.97l0.001-0.159C21.499,5.948,21.501,5.812,21.495,5.677z M6.084,2.409
	c1.372,0,2.407,0.561,3.357,1.817L9.617,4.48c0.445,0.646,0.995,0.782,1.377,0.782c0.748,0,1.168-0.503,1.307-0.668
	c0.106-0.126,0.209-0.255,0.312-0.384c0.24-0.299,0.467-0.582,0.699-0.796c1.174-1.092,2.871-1.325,4.283-0.584
	c1.082,0.566,1.678,1.432,1.881,2.759c0.01,0.056,0.02,0.113,0.021,0.173c0.003,0.086,0.002,0.173,0.001,0.303L19.498,6.23
	c-0.012,1.271-0.208,2.259-0.621,3.11c-0.375,0.773-0.914,1.495-1.602,2.143c-0.729,0.688-1.496,1.371-2.239,2.035L11,17.146
	l-0.521-0.465c-1.396-1.248-2.792-2.496-4.195-3.736c-0.846-0.747-1.732-1.555-2.446-2.466C3.057,9.48,2.63,8.345,2.534,7.008
	C2.486,6.351,2.465,5.655,2.64,5.021C3.056,3.5,4.451,2.427,6.03,2.409l-0.005-0.5L6.084,2.409z"/>
</svg>
