<?xml version="1.0" encoding="utf-8"?>
<!-- Generator: Adobe Illustrator 16.0.0, SVG Export Plug-In . SVG Version: 6.00 Build 0)  -->
<!DOCTYPE svg PUBLIC "-//W3C//DTD SVG 1.1//EN" "http://www.w3.org/Graphics/SVG/1.1/DTD/svg11.dtd">
<svg version="1.1" id="Layer_1" xmlns="http://www.w3.org/2000/svg" xmlns:xlink="http://www.w3.org/1999/xlink" x="0px" y="0px"
	 width="980px" height="200px" viewBox="0 0 980 200" enable-background="new 0 0 980 200" xml:space="preserve">
<g opacity="0.2">
	
		<line fill="none" stroke="#EDE1C3" stroke-width="3" stroke-linecap="round" stroke-linejoin="round" stroke-miterlimit="10" x1="0" y1="-4" x2="980" y2="-4"/>
	
		<line fill="none" stroke="#EDE1C3" stroke-width="3" stroke-linecap="round" stroke-linejoin="round" stroke-miterlimit="10" x1="0" y1="30.667" x2="980" y2="30.667"/>
	
		<line fill="none" stroke="#EDE1C3" stroke-width="3" stroke-linecap="round" stroke-linejoin="round" stroke-miterlimit="10" x1="0" y1="65.333" x2="980" y2="65.333"/>
	
		<line fill="none" stroke="#EDE1C3" stroke-width="3" stroke-linecap="round" stroke-linejoin="round" stroke-miterlimit="10" x1="0" y1="100" x2="980" y2="100"/>
	
		<line fill="none" stroke="#EDE1C3" stroke-width="3" stroke-linecap="round" stroke-linejoin="round" stroke-miterlimit="10" x1="0" y1="134.666" x2="980" y2="134.666"/>
	
		<line fill="none" stroke="#EDE1C3" stroke-width="3" stroke-linecap="round" stroke-linejoin="round" stroke-miterlimit="10" x1="0" y1="169.334" x2="980" y2="169.334"/>
	
		<line fill="none" stroke="#EDE1C3" stroke-width="3" stroke-linecap="round" stroke-linejoin="round" stroke-miterlimit="10" x1="0" y1="204" x2="980" y2="204"/>
</g>
<g>
	<path fill="#FFF4E4" d="M0,201.5c-0.829,0-1.5-0.672-1.5-1.5v-60.74c0-0.727,0.521-1.349,1.236-1.477l45.766-8.166l22.79-12.199
		c0.219-0.117,0.463-0.178,0.708-0.178c0.107,0,0.214,0.012,0.32,0.034l46.796,10.216l59.792-3.681l79.892-6.558l64.921-12.298
		c0.093-0.018,0.187-0.026,0.279-0.026c0.335,0,0.663,0.112,0.93,0.323l26.472,20.924l27.134-4.772l108.812-52.441
		c0.139-0.067,0.288-0.112,0.441-0.134l87-12.312c0.069-0.01,0.14-0.015,0.21-0.015c0.09,0,0.18,0.008,0.268,0.024L675.77,75.312
		l36.549-18.648c0.212-0.108,0.445-0.164,0.682-0.164c0.069,0,0.14,0.005,0.209,0.015l111,15.595
		c0.343,0.048,0.658,0.213,0.893,0.468l71.319,77.24l39.06-14.427c0.166-0.062,0.342-0.093,0.52-0.093h44c0.828,0,1.5,0.672,1.5,1.5
		V200c0,0.828-0.672,1.5-1.5,1.5H0z"/>
	<path fill="#FFD233" d="M713,58l111,15.595l72,77.977l40-14.774h44V200H0v-60.74l46-8.208l23-12.312L116,129l60-3.693l80-6.566
		l65-12.312l27,21.341l28-4.925l109-52.532L572,58l104,18.878L713,58 M572,55c-0.141,0-0.281,0.01-0.42,0.03l-87,12.312
		c-0.306,0.043-0.604,0.133-0.882,0.268l-108.626,52.352l-26.267,4.62l-25.945-20.507c-0.534-0.422-1.19-0.646-1.86-0.646
		c-0.186,0-0.373,0.018-0.559,0.053l-64.844,12.282l-79.818,6.552l-59.546,3.666L69.64,115.81c-0.211-0.047-0.426-0.069-0.64-0.069
		c-0.491,0-0.978,0.12-1.416,0.355l-22.581,12.086l-45.531,8.125C-1.958,136.562-3,137.806-3,139.26V200c0,1.657,1.343,3,3,3h980
		c1.657,0,3-1.343,3-3v-63.202c0-1.657-1.343-3-3-3h-44c-0.354,0-0.707,0.062-1.039,0.186l-38.118,14.079L826.204,71.56
		c-0.47-0.509-1.101-0.839-1.787-0.936l-111-15.595C713.278,55.01,713.139,55,713,55c-0.472,0-0.939,0.111-1.363,0.328
		l-36.098,18.418L572.536,55.048C572.358,55.016,572.18,55,572,55L572,55z"/>
</g>
<g>
	<path fill="#FFD233" d="M977-17v214H3V-17H977 M980-20H0v220h980V-20L980-20z"/>
</g>
</svg>
