<?xml version="1.0" encoding="utf-8"?>
<!-- Generator: Adobe Illustrator 16.0.0, SVG Export Plug-In . SVG Version: 6.00 Build 0)  -->
<!DOCTYPE svg PUBLIC "-//W3C//DTD SVG 1.1//EN" "http://www.w3.org/Graphics/SVG/1.1/DTD/svg11.dtd">
<svg version="1.1" id="Capa_1" xmlns="http://www.w3.org/2000/svg" xmlns:xlink="http://www.w3.org/1999/xlink" x="0px" y="0px"
	 width="116.226px" height="100px" viewBox="-8.695 -0.667 116.226 100" enable-background="new -8.695 -0.667 116.226 100"
	 xml:space="preserve">
<g>
	<circle fill="#414042" cx="24.527" cy="18.93" r="19.597"/>
	<path fill="#414042" d="M74.123,38.527c10.822,0,19.594-8.777,19.594-19.599c0-10.818-8.775-19.595-19.594-19.595
		c-10.826,0-19.596,8.774-19.596,19.595S63.297,38.527,74.123,38.527z"/>
	<circle fill="#414042" cx="49.326" cy="52.913" r="12.149"/>
	<path fill="#414042" d="M54.479,67.292H44.171c-8.576,0-15.553,6.979-15.553,15.555v12.609l0.033,0.195l0.867,0.271
		c8.184,2.559,15.295,3.411,21.149,3.411c11.431,0,18.055-3.26,18.465-3.466l0.811-0.414l0.084,0.003v-12.61
		C70.031,74.271,63.058,67.292,54.479,67.292z"/>
	<path fill="#414042" d="M24.526,82.847c0-8.57,5.476-15.866,13.104-18.628c-2.808-2.947-4.545-6.924-4.545-11.306
		c0-4.928,2.193-9.345,5.642-12.357c-1.835-0.436-3.738-0.695-5.705-0.695H16.394C2.56,39.859-8.695,51.118-8.695,64.951V85.29
		l0.05,0.318l1.401,0.436c12.133,3.791,22.794,5.255,31.77,5.467V82.847z"/>
	<path fill="#414042" d="M82.437,39.859H65.812c-1.97,0-3.872,0.26-5.708,0.696c3.448,3.012,5.642,7.429,5.642,12.357
		c0,4.38-1.734,8.354-4.538,11.301c2.703,0.977,5.191,2.523,7.286,4.62c3.746,3.749,5.808,8.726,5.805,14.012v8.665
		c8.978-0.211,19.645-1.675,31.78-5.467l1.4-0.436l0.053-0.318V64.951C107.526,51.118,96.271,39.859,82.437,39.859z"/>
</g>
</svg>
